<svg width="1980" height="990" xmlns="http://www.w3.org/2000/svg" xmlns:xlink="http://www.w3.org/1999/xlink" xml:space="preserve" overflow="hidden"><g><rect x="0" y="0" width="1980" height="990" fill="#FFFFFF"/><g><path d="M134.5 702.523 1676.5 702.523M134.5 540.518 1676.5 540.518M134.5 377.513 1676.5 377.513M134.5 215.5 1676.5 215.5" stroke="#D9D9D9" stroke-width="3.4375" stroke-linejoin="round" stroke-miterlimit="10" fill="none"/></g><g><path d="M136.505 861.528 174.506 861.528 174.506 864.5 136.505 864.5ZM179.506 845.528 217.507 845.528 217.507 864.5 179.506 864.5ZM221.507 851.528 260.509 851.528 260.509 864.5 221.507 864.5ZM264.509 845.528 303.51 845.528 303.51 864.5 264.509 864.5ZM307.51 799.526 346.512 799.526 346.512 864.5 307.51 864.5ZM350.512 861.528 389.513 861.528 389.513 864.5 350.512 864.5ZM393.513 851.528 431.514 851.528 431.514 864.5 393.513 864.5ZM436.514 861.528 474.516 861.528 474.516 864.5 436.514 864.5ZM479.516 861.528 517.517 861.528 517.517 864.5 479.516 864.5ZM521.517 854.528 560.519 854.528 560.519 864.5 521.517 864.5ZM564.519 845.528 603.52 845.528 603.52 864.5 564.519 864.5ZM693.523 858.528 731.524 858.528 731.524 864.5 693.523 864.5ZM736.524 738.524 774.526 738.524 774.526 864.5 736.524 864.5ZM778.526 799.526 817.527 799.526 817.527 864.5 778.526 864.5ZM821.527 793.526 860.528 793.526 860.528 864.5 821.527 864.5ZM864.529 799.526 903.53 799.526 903.53 864.5 864.529 864.5ZM907.53 783.526 946.531 783.526 946.531 864.5 907.53 864.5ZM950.531 832.527 989.533 832.527 989.533 864.5 950.531 864.5ZM993.533 790.526 1031.53 790.526 1031.53 864.5 993.533 864.5ZM1036.53 699.523 1074.54 699.523 1074.54 864.5 1036.53 864.5ZM1078.54 660.522 1117.54 660.522 1117.54 864.5 1078.54 864.5ZM1121.54 747.525 1160.54 747.525 1160.54 864.5 1121.54 864.5ZM1164.54 705.523 1203.54 705.523 1203.54 864.5 1164.54 864.5ZM1207.54 605.52 1246.54 605.52 1246.54 864.5 1207.54 864.5ZM1250.54 702.523 1288.54 702.523 1288.54 864.5 1250.54 864.5ZM1293.54 712.524 1331.54 712.524 1331.54 864.5 1293.54 864.5ZM1336.54 812.527 1374.55 812.527 1374.55 864.5 1336.54 864.5ZM1378.55 796.526 1417.55 796.526 1417.55 864.5 1378.55 864.5ZM1421.55 803.526 1460.55 803.526 1460.55 864.5 1421.55 864.5ZM1464.55 799.526 1503.55 799.526 1503.55 864.5 1464.55 864.5ZM1507.55 796.526 1546.55 796.526 1546.55 864.5 1507.55 864.5ZM1550.55 793.526 1588.55 793.526 1588.55 864.5 1550.55 864.5ZM1593.55 812.527 1631.55 812.527 1631.55 864.5 1593.55 864.5ZM1636.55 848.528 1674.56 848.528 1674.56 864.5 1636.55 864.5Z" stroke="#F2F2F2" stroke-width="0" stroke-linejoin="round" stroke-miterlimit="10" fill="#521920"/></g><g><path d="M136.505 829.527 174.506 829.527 174.506 861.528 136.505 861.528ZM221.507 702.523 260.509 702.523 260.509 851.528 221.507 851.528ZM264.509 835.528 303.51 835.528 303.51 845.528 264.509 845.528ZM393.513 848.528 431.514 848.528 431.514 851.528 393.513 851.528ZM436.514 858.528 474.516 858.528 474.516 861.528 436.514 861.528ZM479.516 858.528 517.517 858.528 517.517 861.528 479.516 861.528ZM521.517 848.528 560.519 848.528 560.519 854.528 521.517 854.528ZM607.52 861.528 646.521 861.528 646.521 864.5 607.52 864.5ZM650.521 858.528 689.523 858.528 689.523 864.5 650.521 864.5ZM693.523 835.528 731.524 835.528 731.524 858.528 693.523 858.528ZM736.524 640.521 774.526 640.521 774.526 738.524 736.524 738.524ZM778.526 718.524 817.527 718.524 817.527 799.526 778.526 799.526ZM821.527 754.525 860.528 754.525 860.528 793.526 821.527 793.526ZM864.529 634.521 903.53 634.521 903.53 799.526 864.529 799.526ZM907.53 569.519 946.531 569.519 946.531 783.526 907.53 783.526ZM950.531 751.525 989.533 751.525 989.533 832.527 950.531 832.527ZM993.533 777.526 1031.53 777.526 1031.53 790.526 993.533 790.526ZM1036.53 660.522 1074.54 660.522 1074.54 699.523 1036.53 699.523ZM1078.54 595.52 1117.54 595.52 1117.54 660.522 1078.54 660.522ZM1121.54 543.518 1160.54 543.518 1160.54 747.525 1121.54 747.525ZM1164.54 624.521 1203.54 624.521 1203.54 705.523 1164.54 705.523ZM1207.54 572.519 1246.54 572.519 1246.54 605.52 1207.54 605.52ZM1250.54 695.523 1288.54 695.523 1288.54 702.523 1250.54 702.523ZM1293.54 695.523 1331.54 695.523 1331.54 712.524 1293.54 712.524ZM1336.54 790.526 1374.55 790.526 1374.55 812.527 1336.54 812.527ZM1378.55 793.526 1417.55 793.526 1417.55 796.526 1378.55 796.526ZM1421.55 783.526 1460.55 783.526 1460.55 803.526 1421.55 803.526ZM1464.55 708.523 1503.55 708.523 1503.55 799.526 1464.55 799.526ZM1507.55 689.523 1546.55 689.523 1546.55 796.526 1507.55 796.526ZM1550.55 452.515 1588.55 452.515 1588.55 793.526 1550.55 793.526ZM1593.55 491.516 1631.55 491.516 1631.55 812.527 1593.55 812.527ZM1636.55 796.526 1674.56 796.526 1674.56 848.528 1636.55 848.528Z" stroke="#F2F2F2" stroke-width="0" stroke-linejoin="round" stroke-miterlimit="10" fill="#A33340"/></g><g><path d="M136.505 816.527 174.506 816.527 174.506 829.527 136.505 829.527ZM179.506 838.528 217.507 838.528 217.507 845.528 179.506 845.528ZM221.507 647.521 260.509 647.521 260.509 702.523 221.507 702.523ZM264.509 754.525 303.51 754.525 303.51 835.528 264.509 835.528ZM307.51 767.525 346.512 767.525 346.512 799.526 307.51 799.526ZM350.512 822.527 389.513 822.527 389.513 861.528 350.512 861.528ZM393.513 812.527 431.514 812.527 431.514 848.528 393.513 848.528ZM479.516 845.528 517.517 845.528 517.517 858.528 479.516 858.528ZM521.517 842.528 560.519 842.528 560.519 848.528 521.517 848.528ZM564.519 842.528 603.52 842.528 603.52 845.528 564.519 845.528ZM607.52 854.528 646.521 854.528 646.521 861.528 607.52 861.528ZM693.523 832.527 731.524 832.527 731.524 835.528 693.523 835.528ZM736.524 624.521 774.526 624.521 774.526 640.521 736.524 640.521ZM821.527 751.525 860.528 751.525 860.528 754.525 821.527 754.525ZM907.53 562.519 946.531 562.519 946.531 569.519 907.53 569.519ZM950.531 738.524 989.533 738.524 989.533 751.525 950.531 751.525ZM993.533 734.524 1031.53 734.524 1031.53 777.526 993.533 777.526ZM1036.53 601.52 1074.54 601.52 1074.54 660.522 1036.53 660.522ZM1078.54 510.517 1117.54 510.517 1117.54 595.52 1078.54 595.52ZM1121.54 471.516 1160.54 471.516 1160.54 543.518 1121.54 543.518ZM1164.54 471.516 1203.54 471.516 1203.54 624.521 1164.54 624.521ZM1207.54 517.517 1246.54 517.517 1246.54 572.519 1207.54 572.519ZM1250.54 634.521 1288.54 634.521 1288.54 695.523 1250.54 695.523ZM1293.54 666.522 1331.54 666.522 1331.54 695.523 1293.54 695.523ZM1336.54 673.522 1374.55 673.522 1374.55 790.526 1336.54 790.526ZM1378.55 689.523 1417.55 689.523 1417.55 793.526 1378.55 793.526ZM1421.55 686.523 1460.55 686.523 1460.55 783.526 1421.55 783.526ZM1464.55 592.52 1503.55 592.52 1503.55 708.523 1464.55 708.523ZM1507.55 429.514 1546.55 429.514 1546.55 689.523 1507.55 689.523ZM1550.55 299.51 1588.55 299.51 1588.55 452.515 1550.55 452.515ZM1593.55 322.511 1631.55 322.511 1631.55 491.516 1593.55 491.516ZM1636.55 764.525 1674.56 764.525 1674.56 796.526 1636.55 796.526Z" stroke="#F2F2F2" stroke-width="0" stroke-linejoin="round" stroke-miterlimit="10" fill="#D57883"/></g><g><path d="M134.5 864.5 1676.5 864.5" stroke="#333333" stroke-width="3.4375" stroke-linejoin="round" stroke-miterlimit="10" fill="none" fill-rule="evenodd"/></g><g><text fill="#595959" font-family="Arial,Arial_MSFontService,sans-serif" font-weight="400" font-size="41" transform="matrix(1 0 0 1 75.6712 878)">0</text></g><g><text fill="#595959" font-family="Arial,Arial_MSFontService,sans-serif" font-weight="400" font-size="41" transform="matrix(1 0 0 1 52.7314 715)">50</text></g><g><text fill="#595959" font-family="Arial,Arial_MSFontService,sans-serif" font-weight="400" font-size="41" transform="matrix(1 0 0 1 29.7917 553)">100</text></g><g><text fill="#595959" font-family="Arial,Arial_MSFontService,sans-serif" font-weight="400" font-size="41" transform="matrix(1 0 0 1 29.7917 391)">150</text></g><g><text fill="#595959" font-family="Arial,Arial_MSFontService,sans-serif" font-weight="400" font-size="41" transform="matrix(1 0 0 1 29.7917 228)">200</text></g><g><text fill="#595959" font-family="Arial,Arial_MSFontService,sans-serif" font-weight="400" font-size="41" transform="matrix(1 0 0 1 85.5708 927)">1990 or</text></g><g><text fill="#595959" font-family="Arial,Arial_MSFontService,sans-serif" font-weight="400" font-size="41" transform="matrix(1 0 0 1 97.0407 974)">before</text></g><g><text fill="#595959" font-family="Arial,Arial_MSFontService,sans-serif" font-weight="400" font-size="41" transform="matrix(1 0 0 1 323.902 927)">1995</text></g><g><text fill="#595959" font-family="Arial,Arial_MSFontService,sans-serif" font-weight="400" font-size="41" transform="matrix(1 0 0 1 538.17 927)">2000</text></g><g><text fill="#595959" font-family="Arial,Arial_MSFontService,sans-serif" font-weight="400" font-size="41" transform="matrix(1 0 0 1 752.438 927)">2005</text></g><g><text fill="#595959" font-family="Arial,Arial_MSFontService,sans-serif" font-weight="400" font-size="41" transform="matrix(1 0 0 1 966.706 927)">2010</text></g><g><text fill="#595959" font-family="Arial,Arial_MSFontService,sans-serif" font-weight="400" font-size="41" transform="matrix(1 0 0 1 1180.97 927)">2015</text></g><g><text fill="#595959" font-family="Arial,Arial_MSFontService,sans-serif" font-weight="400" font-size="41" transform="matrix(1 0 0 1 1395.24 927)">2020</text></g><g><text fill="#595959" font-family="Arial,Arial_MSFontService,sans-serif" font-weight="400" font-size="41" transform="matrix(1 0 0 1 1609.51 927)">2025</text></g><g><g><text font-family="Arial,Arial_MSFontService,sans-serif" font-weight="700" font-size="46" transform="matrix(1 0 0 1 9.9 53)">Arrival year of aircraft by </text></g></g><g><g><text font-family="Arial,Arial_MSFontService,sans-serif" font-weight="700" font-size="46" transform="matrix(1 0 0 1 565.217 53)">selected engine types at Davis</text></g></g><g><g><text font-family="Arial,Arial_MSFontService,sans-serif" font-weight="700" font-size="46" transform="matrix(1 0 0 1 1230.07 53)">-</text></g></g><g><g><text font-family="Arial,Arial_MSFontService,sans-serif" font-weight="700" font-size="46" transform="matrix(1 0 0 1 1245.34 53)">Monthan Air Force Base</text></g></g><g><text font-family="Arial,Arial_MSFontService,sans-serif" font-weight="700" font-size="46" transform="matrix(1 0 0 1 9.9 106)">(as of March 2025)</text></g><g><g><text font-family="Arial,Arial_MSFontService,sans-serif" font-weight="400" font-size="46" transform="matrix(1 0 0 1 9.9 158)">number of aircraft</text></g></g><g><text fill="#D57883" font-family="Arial,Arial_MSFontService,sans-serif" font-weight="700" font-size="46" transform="matrix(1 0 0 1 1708.03 574)">turboshaft</text></g><g><text fill="#595959" font-family="Arial,Arial_MSFontService,sans-serif" font-weight="400" font-size="37" transform="matrix(1 0 0 1 1708.03 618)">(597 total)</text></g><g><text fill="#A33340" font-family="Arial,Arial_MSFontService,sans-serif" font-weight="700" font-size="46" transform="matrix(1 0 0 1 1708.03 685)">turbofan</text></g><g><text fill="#595959" font-family="Arial,Arial_MSFontService,sans-serif" font-weight="400" font-size="37" transform="matrix(1 0 0 1 1708.03 729)">(719)</text></g><g><text fill="#521920" font-family="Arial,Arial_MSFontService,sans-serif" font-weight="700" font-size="46" transform="matrix(1 0 0 1 1708.03 795)">turboprop</text></g><g><text fill="#595959" font-family="Arial,Arial_MSFontService,sans-serif" font-weight="400" font-size="37" transform="matrix(1 0 0 1 1708.03 839)">(730)</text></g><g><g><g><g><g><path d="M100.883 68.7111C100.883 55.6123 93.9894 53.0845 88.1294 52.6249 78.3628 51.9355 71.124 57.9103 71.124 57.9103L76.5244 63.4256C82.2695 58.8296 91.8063 59.7488 92.6106 65.7236 92.6106 65.7236 84.2228 67.677 82.2695 68.0217 76.4095 69.2856 72.5028 69.7452 69.5154 74.1115 66.8727 78.3628 67.5621 84.6824 71.4687 88.2443 76.8691 93.0702 88.1294 93.0702 93.7596 86.5208 93.7596 86.5208 94.449 90.1977 94.9086 91.3467L103.411 91.3467C99.8494 83.0738 100.769 74.2263 100.883 68.7111ZM92.6106 74.5711C92.151 78.3628 89.5082 83.0738 82.4993 83.993 78.133 84.5675 73.9966 81.6949 76.1797 77.7883 76.8691 76.5244 78.3628 75.6052 80.431 75.2605 81.6949 75.0307 83.0738 74.9158 84.5675 74.686 87.7847 74.2263 90.7722 73.5369 92.6106 72.8475 92.6106 72.8475 92.6106 74.1115 92.6106 74.5711Z" fill="#333333" transform="matrix(1.00079 0 0 1 1836.44 9.32726)"/><path d="M45.9606 72.273C46.0755 61.0127 39.8708 52.9696 28.6105 53.0845 17.5799 52.9696 10.9156 61.4723 11.0305 72.3879 11.0305 78.2479 12.6392 82.844 15.9713 86.4059 20.1078 91.1169 27.9211 92.6106 34.3555 91.002 38.9516 89.8529 42.5135 86.7506 45.0414 82.844L37.9175 78.9373C32.632 87.7847 20.3376 84.7973 19.878 74.3412L45.9606 74.3412ZM20.4525 67.4472C22.4058 58.7146 35.5046 58.255 37.343 67.4472Z" fill="#333333" transform="matrix(1.00079 0 0 1 1836.44 9.32726)"/><path d="M95.4831 28.4956C80.7757 20.2227 57.106 21.2568 13.2137 45.7308 10.8007 47.1096 10.8007 46.3053 11.3752 45.6159 14.4776 41.939 53.5441 9.88153 88.2443 12.869 98.3557 13.7882 116.395 19.6482 119.383 39.1814 122.37 58.7146 113.523 70.2048 110.88 70.7793 114.442 57.2209 112.144 37.9175 95.4831 28.4956Z" fill="#0096D7" transform="matrix(1.00079 0 0 1 1836.44 9.32726)"/><path d="M52.8547 56.7613 52.8547 91.2318 61.2425 91.2318 61.2425 56.7613Z" fill="#333333" transform="matrix(1.00079 0 0 1 1836.44 9.32726)"/><path d="M62.5064 46.0755C62.5064 49.058 60.0886 51.4759 57.106 51.4759 54.1235 51.4759 51.7057 49.058 51.7057 46.0755 51.7057 43.0929 54.1235 40.6751 57.106 40.6751 60.0886 40.6751 62.5064 43.0929 62.5064 46.0755Z" fill="#333333" transform="matrix(1.00079 0 0 1 1836.44 9.32726)"/></g></g></g></g></g></g></svg>