<?xml version="1.0" encoding="UTF-8"?>
<svg version="1.1" viewBox="0 0 269.291 141.732" xmlns="http://www.w3.org/2000/svg">
  <!-- Generator: Adobe Illustrator 28.7.8, SVG Export Plug-In . SVG Version: 1.2.0 Build 200)  -->
  <g>
    <g id="Background">
      <rect width="269.291" height="141.732" fill="#fff"/>
    </g>
    <g id="Graph">
      <g>
        <path d="M1.439,7.896c-.76-.77-.979-1.739-.979-2.898s.22-2.119.989-2.889c.56-.56,1.299-.79,2.089-.79,1.529,0,2.668,1.049,2.769,2.539h-1.319c-.06-.859-.61-1.369-1.489-1.369-.45,0-.87.17-1.149.47-.47.5-.58,1.139-.58,2.039s.11,1.539.58,2.049c.28.3.67.47,1.149.47.83,0,1.389-.5,1.489-1.35h1.319c-.16,1.549-1.319,2.519-2.769,2.519-.81,0-1.549-.24-2.099-.79Z" fill="#0a0a0a"/>
        <path d="M8.639,1.309v2.588c.3-.45.909-.689,1.449-.689,1.139,0,1.789.799,1.789,1.869v3.468h-1.25v-3.238c0-.6-.27-.949-.89-.949-.75,0-1.099.77-1.099,1.429v2.758h-1.25V1.309h1.25Z" fill="#0a0a0a"/>
        <path d="M13.799,8.045c-.53-.5-.81-1.25-.81-2.099,0-.83.28-1.579.8-2.079.399-.39.939-.66,1.659-.66,1.5,0,2.399,1.049,2.399,2.599,0,.2-.01.379-.03.5h-3.578c0,.709.459,1.389,1.249,1.389.57,0,.959-.29,1.05-.7h1.169c-.15,1.02-1.079,1.689-2.199,1.689-.739,0-1.289-.25-1.709-.64ZM16.597,5.396c0-.77-.45-1.199-1.119-1.199-.68,0-1.179.49-1.229,1.199h2.349Z" fill="#0a0a0a"/>
        <path d="M18.229,3.348h1.35l1.269,3.708,1.199-3.708h1.319l-1.879,5.197h-1.329l-1.929-5.197Z" fill="#0a0a0a"/>
        <path d="M24.149,3.348h1.089l.08.86c.24-.66.859-.93,1.469-.93.13,0,.26.01.39.03v1.2c-.1-.03-.25-.05-.4-.05-.929,0-1.369.6-1.369,1.569v2.519h-1.259V3.348Z" fill="#0a0a0a"/>
        <path d="M28.379,7.896c-.42-.47-.66-1.04-.66-1.949s.24-1.479.66-1.949c.37-.42.989-.79,1.869-.79s1.5.37,1.869.79c.42.47.66,1.039.66,1.949s-.24,1.479-.66,1.949c-.37.419-.99.79-1.869.79s-1.499-.37-1.869-.79ZM31.098,7.266c.33-.33.41-.81.41-1.319s-.08-.989-.41-1.319c-.18-.18-.46-.33-.85-.33s-.669.15-.85.33c-.33.33-.41.81-.41,1.319s.08.99.41,1.319c.18.18.46.33.85.33s.67-.15.85-.33Z" fill="#0a0a0a"/>
        <path d="M33.949,3.348h1.089l.06.68c.31-.56.95-.819,1.549-.819,1.109,0,1.789.77,1.789,1.859v3.478h-1.25v-3.188c0-.609-.29-.989-.87-.989-.779,0-1.119.689-1.119,1.499v2.679h-1.25V3.348Z" fill="#0a0a0a"/>
        <path d="M39.579,1.309h1.329v1.309l-.31,1.709h-.709l-.31-1.709v-1.309Z" fill="#0a0a0a"/>
        <path d="M41.5,6.876h1.199c0,.58.46.85,1.08.85.52,0,1.029-.2,1.029-.69,0-.28-.19-.49-.54-.54l-1.25-.17c-.859-.12-1.359-.72-1.359-1.359,0-1.059.95-1.759,2.119-1.759,1.129,0,2.079.68,2.079,1.679h-1.189c0-.479-.38-.739-.89-.739-.54,0-.939.22-.939.64,0,.37.32.49.6.53l1.109.15c.819.11,1.419.66,1.419,1.479,0,1.159-1.039,1.739-2.229,1.739-1.259,0-2.239-.71-2.239-1.809Z" fill="#0a0a0a"/>
        <path d="M52.008,1.459c1.629,0,2.479.909,2.479,2.168s-.85,2.179-2.479,2.179h-1.52v2.738h-1.279V1.459h2.799ZM53.187,3.638c0-.65-.39-1.049-1.25-1.049h-1.449v2.089h1.449c.86,0,1.25-.39,1.25-1.04Z" fill="#0a0a0a"/>
        <path d="M55.02,7.056c0-.949.7-1.579,1.859-1.659l1.429-.1v-.3c0-.49-.26-.83-.919-.83-.61,0-.919.27-.95.75h-1.209c0-.99.889-1.709,2.179-1.709,1.339,0,2.119.62,2.119,1.959v2.089c0,.24.11.33.32.33.06,0,.12-.01.16-.02v.919c-.16.09-.34.14-.62.14-.54,0-.87-.31-.95-.76-.24.42-.799.82-1.539.82-1.239,0-1.879-.78-1.879-1.629ZM58.308,6.446v-.23l-1.199.09c-.5.04-.87.23-.87.7,0,.4.31.68.83.68.85,0,1.239-.56,1.239-1.239Z" fill="#0a0a0a"/>
        <path d="M60.679,6.876h1.199c0,.58.46.85,1.08.85.52,0,1.029-.2,1.029-.69,0-.28-.19-.49-.54-.54l-1.25-.17c-.859-.12-1.359-.72-1.359-1.359,0-1.059.95-1.759,2.119-1.759,1.129,0,2.079.68,2.079,1.679h-1.189c0-.479-.38-.739-.89-.739-.54,0-.939.22-.939.64,0,.37.32.49.6.53l1.109.15c.819.11,1.419.66,1.419,1.479,0,1.159-1.039,1.739-2.229,1.739-1.259,0-2.239-.71-2.239-1.809Z" fill="#0a0a0a"/>
        <path d="M66.439,7.865c-.4-.49-.6-1.159-.6-1.919s.2-1.439.609-1.919c.37-.44.99-.819,1.849-.819,1.269,0,2.189.779,2.249,1.959h-1.209c-.05-.56-.41-.88-1.01-.88-.41,0-.68.15-.849.34-.31.34-.37.83-.37,1.319s.06.979.37,1.31c.18.189.439.35.849.35.59,0,.959-.34,1.01-.87h1.209c-.06,1.16-1.019,1.949-2.249,1.949-.859,0-1.499-.37-1.859-.82Z" fill="#0a0a0a"/>
        <path d="M71.309,7.056c0-.949.7-1.579,1.859-1.659l1.429-.1v-.3c0-.49-.26-.83-.919-.83-.61,0-.919.27-.95.75h-1.209c0-.99.889-1.709,2.179-1.709,1.339,0,2.119.62,2.119,1.959v2.089c0,.24.11.33.32.33.06,0,.12-.01.16-.02v.919c-.16.09-.34.14-.62.14-.54,0-.87-.31-.95-.76-.24.42-.799.82-1.539.82-1.239,0-1.879-.78-1.879-1.629ZM74.597,6.446v-.23l-1.199.09c-.5.04-.87.23-.87.7,0,.4.31.68.83.68.85,0,1.239-.56,1.239-1.239Z" fill="#0a0a0a"/>
        <path d="M76.899,9.384c0-.47.31-.849.77-1.039-.32-.17-.52-.52-.52-.86,0-.41.27-.779.69-.979-.38-.33-.63-.79-.63-1.369,0-1.159.919-1.929,2.129-1.929.43,0,.85.12,1.179.32.16-.53.63-.79,1.1-.79.08,0,.26,0,.34.02v.989c-.03-.01-.09-.01-.12-.01-.3,0-.629.1-.669.419.19.29.29.61.29.97,0,1.139-.939,1.889-2.119,1.889-.3,0-.59-.05-.859-.14-.14.07-.26.18-.26.35,0,.31.27.36.529.36h.88c.52,0,1.189.01,1.679.35.45.31.61.73.61,1.229,0,1.189-1.159,1.679-2.519,1.679-1.279,0-2.499-.28-2.499-1.459ZM80.747,9.194c0-.6-.68-.62-1.149-.62h-1.119c-.27.08-.47.29-.47.62,0,.6.75.7,1.389.7.649,0,1.349-.1,1.349-.7ZM80.257,5.117c0-.58-.35-.979-.919-.979s-.919.4-.919.979.35.97.919.97.919-.39.919-.97Z" fill="#0a0a0a"/>
        <path d="M83.169,7.896c-.42-.47-.66-1.04-.66-1.949s.24-1.479.66-1.949c.37-.42.989-.79,1.869-.79s1.5.37,1.869.79c.42.47.66,1.039.66,1.949s-.24,1.479-.66,1.949c-.37.419-.99.79-1.869.79s-1.499-.37-1.869-.79ZM85.887,7.266c.33-.33.41-.81.41-1.319s-.08-.989-.41-1.319c-.18-.18-.459-.33-.85-.33s-.669.15-.85.33c-.33.33-.41.81-.41,1.319s.08.99.41,1.319c.18.18.46.33.85.33s.67-.15.85-.33Z" fill="#0a0a0a"/>
        <path d="M88.689,6.826v-3.478h1.249v3.188c0,.609.29,1,.9,1,.719,0,1.019-.59,1.019-1.339v-2.849h1.25v5.197h-1.069l-.06-.78c-.22.59-.83.92-1.489.92-1.04,0-1.799-.75-1.799-1.859Z" fill="#0a0a0a"/>
        <path d="M94.539,7.206V1.309h1.259v5.687c0,.3.07.5.5.5.11,0,.14-.01.21-.01v1.05c-.23.05-.32.07-.55.07-.849,0-1.419-.41-1.419-1.399Z" fill="#0a0a0a"/>
        <path d="M97.169,7.056c0-.949.7-1.579,1.859-1.659l1.429-.1v-.3c0-.49-.26-.83-.919-.83-.61,0-.919.27-.95.75h-1.209c0-.99.889-1.709,2.179-1.709,1.339,0,2.119.62,2.119,1.959v2.089c0,.24.11.33.32.33.06,0,.12-.01.16-.02v.919c-.16.09-.34.14-.62.14-.54,0-.87-.31-.95-.76-.24.42-.799.82-1.539.82-1.239,0-1.879-.78-1.879-1.629ZM100.457,6.446v-.23l-1.199.09c-.5.04-.87.23-.87.7,0,.4.31.68.83.68.85,0,1.239-.56,1.239-1.239Z" fill="#0a0a0a"/>
        <path d="M103.188,9.674c.65-.2.8-.6.8-1.129h-.75v-1.499h1.509v1.499c0,.799-.39,1.519-1.33,1.739l-.23-.61Z" fill="#0a0a0a"/>
        <path d="M115.145,1.459v7.086h-1.25V3.128l-1.839,5.317h-.989l-1.829-5.427v5.527h-1.25V1.459h1.869l1.749,5.177,1.759-5.177h1.779Z" fill="#0a0a0a"/>
        <path d="M118.028,1.319v1.29h-1.35v-1.29h1.35ZM117.988,3.348v5.197h-1.27V3.348h1.27Z" fill="#0a0a0a"/>
        <path d="M119.059,6.876h1.199c0,.58.46.85,1.08.85.52,0,1.029-.2,1.029-.69,0-.28-.19-.49-.54-.54l-1.25-.17c-.859-.12-1.359-.72-1.359-1.359,0-1.059.95-1.759,2.119-1.759,1.129,0,2.079.68,2.079,1.679h-1.189c0-.479-.38-.739-.89-.739-.54,0-.939.22-.939.64,0,.37.32.49.6.53l1.109.15c.819.11,1.419.66,1.419,1.479,0,1.159-1.039,1.739-2.229,1.739-1.259,0-2.239-.71-2.239-1.809Z" fill="#0a0a0a"/>
        <path d="M124.118,6.876h1.199c0,.58.46.85,1.08.85.52,0,1.029-.2,1.029-.69,0-.28-.19-.49-.54-.54l-1.25-.17c-.859-.12-1.359-.72-1.359-1.359,0-1.059.95-1.759,2.119-1.759,1.129,0,2.079.68,2.079,1.679h-1.189c0-.479-.38-.739-.89-.739-.54,0-.939.22-.939.64,0,.37.32.49.6.53l1.109.15c.819.11,1.419.66,1.419,1.479,0,1.159-1.039,1.739-2.229,1.739-1.259,0-2.239-.71-2.239-1.809Z" fill="#0a0a0a"/>
        <path d="M130.877,1.319v1.29h-1.35v-1.29h1.35ZM130.837,3.348v5.197h-1.27V3.348h1.27Z" fill="#0a0a0a"/>
        <path d="M131.908,6.876h1.199c0,.58.46.85,1.079.85.521,0,1.03-.2,1.03-.69,0-.28-.19-.49-.54-.54l-1.249-.17c-.86-.12-1.359-.72-1.359-1.359,0-1.059.949-1.759,2.118-1.759,1.13,0,2.079.68,2.079,1.679h-1.189c0-.479-.38-.739-.89-.739-.539,0-.939.22-.939.64,0,.37.32.49.6.53l1.109.15c.82.11,1.42.66,1.42,1.479,0,1.159-1.04,1.739-2.229,1.739-1.259,0-2.238-.71-2.238-1.809Z" fill="#0a0a0a"/>
        <path d="M136.969,6.876h1.199c0,.58.46.85,1.079.85.521,0,1.03-.2,1.03-.69,0-.28-.19-.49-.54-.54l-1.249-.17c-.86-.12-1.359-.72-1.359-1.359,0-1.059.949-1.759,2.118-1.759,1.13,0,2.079.68,2.079,1.679h-1.189c0-.479-.38-.739-.89-.739-.539,0-.939.22-.939.64,0,.37.32.49.6.53l1.109.15c.82.11,1.42.66,1.42,1.479,0,1.159-1.04,1.739-2.229,1.739-1.259,0-2.238-.71-2.238-1.809Z" fill="#0a0a0a"/>
        <path d="M143.728,1.319v1.29h-1.35v-1.29h1.35ZM143.688,3.348v5.197h-1.27V3.348h1.27Z" fill="#0a0a0a"/>
        <path d="M145.147,3.348h1.09l.069.65c.29-.53.92-.79,1.56-.79.6,0,1.079.19,1.429.51.561.509.81,1.349.81,2.219,0,.929-.279,1.759-.85,2.259-.35.31-.829.49-1.419.49-.749,0-1.189-.33-1.439-.64v2.658h-1.249V3.348ZM148.436,7.256c.28-.35.4-.79.4-1.319,0-.48-.08-.939-.37-1.279-.21-.24-.46-.4-.859-.4-.38,0-.63.14-.85.38-.29.31-.39.759-.39,1.229,0,.56.1,1.06.409,1.399.19.21.46.36.83.36.38,0,.649-.15.829-.37Z" fill="#0a0a0a"/>
        <path d="M151.277,3.348h1.09l.069.65c.29-.53.92-.79,1.56-.79.6,0,1.079.19,1.429.51.56.509.81,1.349.81,2.219,0,.929-.279,1.759-.85,2.259-.35.31-.829.49-1.419.49-.749,0-1.189-.33-1.439-.64v2.658h-1.249V3.348ZM154.565,7.256c.28-.35.4-.79.4-1.319,0-.48-.08-.939-.37-1.279-.21-.24-.46-.4-.859-.4-.38,0-.63.14-.85.38-.29.31-.39.759-.39,1.229,0,.56.1,1.06.409,1.399.19.21.46.36.83.36.38,0,.649-.15.829-.37Z" fill="#0a0a0a"/>
        <path d="M158.717,1.319v1.29h-1.35v-1.29h1.35ZM158.677,3.348v5.197h-1.27V3.348h1.27Z" fill="#0a0a0a"/>
        <path d="M162.287,3.348h1.09l.08.86c.239-.66.859-.93,1.469-.93.13,0,.26.01.39.03v1.2c-.1-.03-.25-.05-.399-.05-.93,0-1.369.6-1.369,1.569v2.519h-1.26V3.348Z" fill="#0a0a0a"/>
        <path d="M166.657,8.045c-.529-.5-.81-1.25-.81-2.099,0-.83.28-1.579.8-2.079.399-.39.939-.66,1.659-.66,1.499,0,2.398,1.049,2.398,2.599,0,.2-.01.379-.03.5h-3.578c0,.709.46,1.389,1.25,1.389.569,0,.959-.29,1.049-.7h1.17c-.15,1.02-1.08,1.689-2.199,1.689-.739,0-1.289-.25-1.709-.64ZM169.456,5.396c0-.77-.45-1.199-1.12-1.199-.68,0-1.179.49-1.229,1.199h2.349Z" fill="#0a0a0a"/>
        <path d="M172.317,4.377h-1v-1.03h1v-.479c0-.959.649-1.659,1.769-1.659.36,0,.51.03.85.11v1.009c-.14-.04-.33-.09-.6-.09-.52,0-.77.24-.77.709v.4h1.289v1.03h-1.289v4.167h-1.249v-4.167Z" fill="#0a0a0a"/>
        <path d="M177.077,1.319v1.29h-1.35v-1.29h1.35ZM177.037,3.348v5.197h-1.27V3.348h1.27Z" fill="#0a0a0a"/>
        <path d="M178.497,3.348h1.09l.06.68c.31-.56.949-.819,1.549-.819,1.109,0,1.789.77,1.789,1.859v3.478h-1.249v-3.188c0-.609-.29-.989-.869-.989-.78,0-1.12.689-1.12,1.499v2.679h-1.249V3.348Z" fill="#0a0a0a"/>
        <path d="M184.907,8.045c-.529-.5-.81-1.25-.81-2.099,0-.83.28-1.579.8-2.079.399-.39.939-.66,1.659-.66,1.499,0,2.398,1.049,2.398,2.599,0,.2-.01.379-.03.5h-3.578c0,.709.46,1.389,1.25,1.389.569,0,.959-.29,1.049-.7h1.17c-.15,1.02-1.08,1.689-2.199,1.689-.739,0-1.289-.25-1.709-.64ZM187.706,5.396c0-.77-.45-1.199-1.12-1.199-.68,0-1.179.49-1.229,1.199h2.349Z" fill="#0a0a0a"/>
        <path d="M190.098,3.348h1.09l.08.86c.239-.66.859-.93,1.469-.93.13,0,.26.01.39.03v1.2c-.1-.03-.25-.05-.399-.05-.93,0-1.369.6-1.369,1.569v2.519h-1.26V3.348Z" fill="#0a0a0a"/>
        <path d="M193.718,10.664v-1.029c.16.05.34.09.55.09.34,0,.699-.08.919-.62l.271-.66-2.079-5.097h1.379l1.38,3.698,1.259-3.698h1.279l-2.259,5.957c-.489,1.289-1.189,1.489-1.949,1.489-.26,0-.539-.04-.749-.13Z" fill="#0a0a0a"/>
      </g>
      <g>
        <path d="M.331,138.608h.42c.09.766.676,1.262,1.547,1.262.863,0,1.539-.436,1.539-1.187,0-.503-.398-.924-1.036-1.014l-.901-.128c-.811-.112-1.381-.532-1.381-1.336,0-.863.871-1.494,1.817-1.494,1.028,0,1.764.646,1.832,1.517h-.398c-.105-.751-.706-1.141-1.449-1.141-.781,0-1.396.458-1.396,1.104,0,.615.443.855,1.014.938l.916.127c.818.113,1.389.676,1.389,1.412,0,.945-.833,1.576-1.944,1.576-1.059,0-1.922-.661-1.967-1.637Z" fill="#0a0a0a"/>
        <path d="M5.648,139.802c-.413-.397-.571-.893-.571-1.539,0-.638.158-1.141.571-1.539.27-.255.646-.442,1.126-.442s.856.188,1.126.442c.413.398.57.901.57,1.539,0,.646-.158,1.142-.57,1.539-.271.256-.646.443-1.126.443s-.856-.188-1.126-.443ZM7.638,139.547c.353-.346.451-.788.451-1.284,0-.487-.098-.938-.451-1.283-.203-.203-.488-.33-.863-.33s-.661.127-.863.33c-.353.345-.45.796-.45,1.283,0,.496.097.938.45,1.284.203.203.488.33.863.33s.661-.127.863-.33Z" fill="#0a0a0a"/>
        <path d="M9.571,138.812v-2.425h.375v2.402c0,.652.323,1.088.983,1.088.871,0,1.231-.698,1.231-1.539v-1.951h.375v3.753h-.345l-.03-.705c-.21.495-.69.811-1.254.811-.848,0-1.336-.593-1.336-1.434Z" fill="#0a0a0a"/>
        <path d="M13.928,136.387h.345l.03.772c.165-.525.675-.811,1.208-.811.113,0,.24,0,.353.038v.36c-.12-.03-.248-.038-.368-.038-.871,0-1.193.721-1.193,1.554v1.877h-.375v-3.753Z" fill="#0a0a0a"/>
        <path d="M16.891,139.795c-.398-.398-.541-.894-.541-1.532,0-.646.135-1.148.541-1.539.27-.263.653-.442,1.133-.442.796,0,1.404.488,1.494,1.269h-.398c-.083-.518-.511-.9-1.096-.9-.368,0-.661.12-.863.322-.353.353-.428.796-.428,1.291,0,.488.083.932.435,1.284.203.203.496.323.863.323.586,0,1.014-.384,1.096-.901h.391c-.098.773-.706,1.269-1.494,1.269-.48,0-.863-.173-1.133-.442Z" fill="#0a0a0a"/>
        <path d="M20.836,139.72c-.308-.36-.496-.871-.496-1.441,0-.474.075-.938.375-1.337.323-.428.766-.66,1.314-.66,1.036,0,1.659.826,1.659,1.824,0,.09,0,.143-.007.248h-2.965c.015.833.503,1.531,1.344,1.531.593,0,1.059-.391,1.148-.871h.391c-.113.706-.789,1.231-1.539,1.231-.541,0-.976-.24-1.224-.525ZM23.298,138.016c-.015-.714-.458-1.382-1.269-1.382-.796,0-1.292.646-1.307,1.382h2.575Z" fill="#0a0a0a"/>
        <path d="M25.336,136.387v.675h-.661v-.675h.661ZM25.336,139.464v.676h-.661v-.676h.661Z" fill="#0a0a0a"/>
        <path d="M31.571,134.817v.375h-3.011v1.989h2.65v.376h-2.65v2.207h3.011v.375h-3.409v-5.322h3.409Z" fill="#0a0a0a"/>
        <path d="M32.641,136.387h.345l.03.721c.195-.519.781-.826,1.306-.826.856,0,1.329.57,1.329,1.403v2.455h-.375v-2.417c0-.631-.323-1.073-.991-1.073-.833,0-1.269.69-1.269,1.523v1.967h-.375v-3.753Z" fill="#0a0a0a"/>
        <path d="M37.238,139.72c-.308-.36-.496-.871-.496-1.441,0-.474.075-.938.375-1.337.323-.428.766-.66,1.314-.66,1.036,0,1.659.826,1.659,1.824,0,.09,0,.143-.007.248h-2.965c.015.833.503,1.531,1.344,1.531.593,0,1.059-.391,1.148-.871h.391c-.113.706-.789,1.231-1.539,1.231-.541,0-.976-.24-1.224-.525ZM39.701,138.016c-.015-.714-.458-1.382-1.269-1.382-.796,0-1.292.646-1.307,1.382h2.575Z" fill="#0a0a0a"/>
        <path d="M41.198,136.387h.345l.03.772c.165-.525.675-.811,1.208-.811.113,0,.24,0,.353.038v.36c-.12-.03-.248-.038-.368-.038-.871,0-1.193.721-1.193,1.554v1.877h-.375v-3.753Z" fill="#0a0a0a"/>
        <path d="M43.56,140.673c0-.391.255-.729.661-.841-.286-.06-.496-.308-.496-.586,0-.314.218-.548.525-.66-.27-.226-.436-.563-.436-.983,0-.811.646-1.321,1.404-1.321.338,0,.646.098.901.263.09-.33.398-.518.735-.518.045,0,.105.007.143.015v.315c-.038-.008-.098-.008-.143-.008-.27,0-.465.15-.518.405.188.218.301.503.301.849,0,.811-.638,1.299-1.419,1.299-.286,0-.548-.061-.766-.181-.203.083-.39.226-.39.451,0,.345.375.39.676.39h.773c.578,0,.938.098,1.194.338.18.173.285.376.285.691,0,.841-.878,1.148-1.771,1.148-.924,0-1.659-.323-1.659-1.066ZM46.615,140.605c0-.541-.488-.69-1.073-.69h-1.006c-.337.082-.623.285-.623.721,0,.585.653.766,1.314.766.713,0,1.389-.181,1.389-.796ZM46.263,137.603c0-.623-.458-.991-1.043-.991-.563,0-1.036.368-1.036.991,0,.615.45.969,1.036.969s1.043-.354,1.043-.969Z" fill="#0a0a0a"/>
        <path d="M47.475,141.604v-.367c.135.067.3.112.488.112.36,0,.586-.165.758-.601l.218-.548-1.531-3.813h.413l1.299,3.333,1.254-3.333h.398l-1.719,4.489c-.233.607-.571.833-1.066.833-.24,0-.45-.067-.51-.105Z" fill="#0a0a0a"/>
        <path d="M53.723,134.817v5.322h-.398v-5.322h.398Z" fill="#0a0a0a"/>
        <path d="M55.208,136.387h.345l.03.721c.195-.519.781-.826,1.306-.826.856,0,1.329.57,1.329,1.403v2.455h-.375v-2.417c0-.631-.323-1.073-.991-1.073-.833,0-1.269.69-1.269,1.523v1.967h-.375v-3.753Z" fill="#0a0a0a"/>
        <path d="M59.812,136.731h-.795v-.345h.795v-.639c0-.57.36-1.073,1.081-1.073.218,0,.391.022.533.06v.338c-.135-.037-.285-.06-.503-.06-.488,0-.736.27-.736.75v.624h1.164v.345h-1.164v3.408h-.375v-3.408Z" fill="#0a0a0a"/>
        <path d="M62.378,139.802c-.413-.397-.571-.893-.571-1.539,0-.638.158-1.141.571-1.539.27-.255.646-.442,1.126-.442s.856.188,1.126.442c.413.398.57.901.57,1.539,0,.646-.158,1.142-.57,1.539-.271.256-.646.443-1.126.443s-.856-.188-1.126-.443ZM64.367,139.547c.353-.346.451-.788.451-1.284,0-.487-.098-.938-.451-1.283-.203-.203-.488-.33-.863-.33s-.661.127-.863.33c-.353.345-.45.796-.45,1.283,0,.496.097.938.45,1.284.203.203.488.33.863.33s.661-.127.863-.33Z" fill="#0a0a0a"/>
        <path d="M66.345,136.387h.345l.03.772c.165-.525.675-.811,1.208-.811.113,0,.24,0,.353.038v.36c-.12-.03-.248-.038-.368-.038-.871,0-1.193.721-1.193,1.554v1.877h-.375v-3.753Z" fill="#0a0a0a"/>
        <path d="M69.18,136.387h.345l.03.735c.172-.503.63-.841,1.179-.841.646,0,1.021.33,1.171.811.203-.465.608-.811,1.239-.811.878,0,1.246.578,1.246,1.381v2.478h-.375v-2.432c0-.661-.255-1.074-.908-1.074-.706,0-1.119.623-1.119,1.382v2.124h-.39v-2.432c0-.661-.286-1.074-.909-1.074-.721,0-1.133.676-1.133,1.479v2.026h-.375v-3.753Z" fill="#0a0a0a"/>
        <path d="M75.427,139.097c0-.668.51-1.081,1.261-1.134l1.382-.098v-.33c0-.631-.458-.901-1.036-.901-.563,0-1.029.271-1.066.834h-.375c.052-.773.676-1.187,1.426-1.187.856,0,1.426.42,1.426,1.283v1.854c0,.256.038.405.293.405.03,0,.075,0,.105-.007v.33c-.052.015-.12.022-.18.022-.465,0-.593-.353-.593-.751-.203.533-.773.826-1.352.826-.728,0-1.291-.443-1.291-1.148ZM78.07,138.405v-.194l-1.344.082c-.578.038-.916.353-.916.796,0,.525.405.811.938.811.946,0,1.321-.766,1.321-1.494Z" fill="#0a0a0a"/>
        <path d="M80.175,139.164v-2.433h-.886v-.345h.886v-1.036l.375-.091v1.127h1.179v.345h-1.179v2.38c0,.413.127.729.675.729.203,0,.36-.022.556-.067v.33c-.188.06-.375.09-.585.09-.736,0-1.021-.428-1.021-1.028Z" fill="#0a0a0a"/>
        <path d="M83.123,134.817v.556h-.511v-.556h.511ZM83.062,136.387v3.753h-.383v-3.753h.383Z" fill="#0a0a0a"/>
        <path d="M84.772,139.802c-.413-.397-.571-.893-.571-1.539,0-.638.158-1.141.571-1.539.27-.255.646-.442,1.126-.442s.856.188,1.126.442c.413.398.57.901.57,1.539,0,.646-.158,1.142-.57,1.539-.271.256-.646.443-1.126.443s-.856-.188-1.126-.443ZM86.762,139.547c.353-.346.451-.788.451-1.284,0-.487-.098-.938-.451-1.283-.203-.203-.488-.33-.863-.33s-.661.127-.863.33c-.353.345-.45.796-.45,1.283,0,.496.097.938.45,1.284.203.203.488.33.863.33s.661-.127.863-.33Z" fill="#0a0a0a"/>
        <path d="M88.74,136.387h.345l.03.721c.195-.519.781-.826,1.306-.826.856,0,1.329.57,1.329,1.403v2.455h-.375v-2.417c0-.631-.323-1.073-.991-1.073-.833,0-1.269.69-1.269,1.523v1.967h-.375v-3.753Z" fill="#0a0a0a"/>
        <path d="M97.705,138.466h-2.522l-.638,1.674h-.413l2.064-5.322h.473l2.087,5.322h-.406l-.646-1.674ZM97.562,138.105l-1.134-2.928-1.111,2.928h2.245Z" fill="#0a0a0a"/>
        <path d="M99.885,139.885c-.436-.368-.631-.969-.631-1.614,0-.615.195-1.193.601-1.576.263-.248.631-.413,1.096-.413.608,0,1.073.338,1.246.758v-2.334h.383v5.435h-.353l-.03-.713c-.21.503-.758.818-1.276.818-.443,0-.781-.143-1.036-.36ZM101.716,139.569c.353-.323.488-.788.488-1.307,0-.555-.128-.99-.48-1.313-.195-.18-.458-.3-.811-.3-.36,0-.638.127-.841.338-.3.314-.436.795-.436,1.275,0,.533.15,1.044.511,1.344.195.166.458.271.781.271.338,0,.593-.127.788-.308Z" fill="#0a0a0a"/>
        <path d="M103.972,136.387h.345l.03.735c.172-.503.63-.841,1.179-.841.646,0,1.021.33,1.171.811.203-.465.608-.811,1.239-.811.878,0,1.247.578,1.247,1.381v2.478h-.376v-2.432c0-.661-.255-1.074-.908-1.074-.706,0-1.119.623-1.119,1.382v2.124h-.39v-2.432c0-.661-.286-1.074-.909-1.074-.721,0-1.133.676-1.133,1.479v2.026h-.375v-3.753Z" fill="#0a0a0a"/>
        <path d="M110.969,134.817v.556h-.51v-.556h.51ZM110.91,136.387v3.753h-.383v-3.753h.383Z" fill="#0a0a0a"/>
        <path d="M112.296,136.387h.346l.029.721c.195-.519.781-.826,1.307-.826.855,0,1.329.57,1.329,1.403v2.455h-.376v-2.417c0-.631-.322-1.073-.991-1.073-.833,0-1.269.69-1.269,1.523v1.967h-.375v-3.753Z" fill="#0a0a0a"/>
        <path d="M117.096,134.817v.556h-.51v-.556h.51ZM117.037,136.387v3.753h-.383v-3.753h.383Z" fill="#0a0a0a"/>
        <path d="M118.086,138.999h.383c.061.615.548.886,1.164.886.623,0,1.088-.271,1.088-.781,0-.33-.232-.607-.69-.668l-.729-.098c-.63-.082-1.059-.383-1.059-.953,0-.668.646-1.104,1.352-1.104.811,0,1.396.466,1.419,1.141h-.375c-.053-.54-.496-.788-1.044-.788s-.968.293-.968.714c0,.308.165.54.728.615l.714.098c.705.098,1.035.57,1.035,1.021,0,.766-.69,1.164-1.471,1.164-.894,0-1.51-.473-1.547-1.246Z" fill="#0a0a0a"/>
        <path d="M122.497,139.164v-2.433h-.886v-.345h.886v-1.036l.375-.091v1.127h1.179v.345h-1.179v2.38c0,.413.128.729.676.729.203,0,.36-.022.556-.067v.33c-.188.06-.375.09-.585.09-.736,0-1.021-.428-1.021-1.028Z" fill="#0a0a0a"/>
        <path d="M125.001,136.387h.346l.029.772c.165-.525.676-.811,1.209-.811.112,0,.24,0,.353.038v.36c-.12-.03-.247-.038-.367-.038-.871,0-1.194.721-1.194,1.554v1.877h-.375v-3.753Z" fill="#0a0a0a"/>
        <path d="M127.341,139.097c0-.668.511-1.081,1.261-1.134l1.382-.098v-.33c0-.631-.458-.901-1.036-.901-.563,0-1.028.271-1.066.834h-.375c.053-.773.676-1.187,1.426-1.187.856,0,1.427.42,1.427,1.283v1.854c0,.256.038.405.293.405.03,0,.075,0,.105-.007v.33c-.053.015-.12.022-.181.022-.466,0-.593-.353-.593-.751-.203.533-.773.826-1.352.826-.729,0-1.291-.443-1.291-1.148ZM129.984,138.405v-.194l-1.344.082c-.578.038-.916.353-.916.796,0,.525.405.811.938.811.945,0,1.321-.766,1.321-1.494Z" fill="#0a0a0a"/>
        <path d="M132.089,139.164v-2.433h-.886v-.345h.886v-1.036l.375-.091v1.127h1.179v.345h-1.179v2.38c0,.413.128.729.676.729.203,0,.36-.022.556-.067v.33c-.188.06-.375.09-.586.09-.735,0-1.021-.428-1.021-1.028Z" fill="#0a0a0a"/>
        <path d="M135.038,134.817v.556h-.511v-.556h.511ZM134.977,136.387v3.753h-.383v-3.753h.383Z" fill="#0a0a0a"/>
        <path d="M136.686,139.802c-.412-.397-.57-.893-.57-1.539,0-.638.158-1.141.57-1.539.271-.255.646-.442,1.127-.442s.855.188,1.127.442c.412.398.57.901.57,1.539,0,.646-.158,1.142-.57,1.539-.271.256-.646.443-1.127.443s-.855-.188-1.127-.443ZM138.676,139.547c.354-.346.451-.788.451-1.284,0-.487-.098-.938-.451-1.283-.203-.203-.488-.33-.863-.33s-.66.127-.863.33c-.354.345-.451.796-.451,1.283,0,.496.098.938.451,1.284.203.203.488.33.863.33s.66-.127.863-.33Z" fill="#0a0a0a"/>
        <path d="M140.654,136.387h.346l.029.721c.195-.519.781-.826,1.307-.826.855,0,1.328.57,1.328,1.403v2.455h-.375v-2.417c0-.631-.322-1.073-.992-1.073-.832,0-1.268.69-1.268,1.523v1.967h-.375v-3.753Z" fill="#0a0a0a"/>
      </g>
      <g>
        <path d="M1.652,127.891l-1.299-.391.105-.338,1.284.451-.038-1.352h.353l-.03,1.352,1.276-.451.113.338-1.299.391.811,1.073-.285.211-.766-1.119-.766,1.119-.285-.211.826-1.073Z" fill="#0a0a0a"/>
        <path d="M5.527,129.985v-.09h.398v.09c0,.683.353,1.321,1.134,1.321.706,0,1.081-.503,1.081-1.224v-3.821h.39v3.844c0,.855-.548,1.584-1.471,1.584-.954,0-1.532-.698-1.532-1.704Z" fill="#0a0a0a"/>
        <path d="M9.615,130.541c0-.668.511-1.081,1.262-1.134l1.381-.098v-.33c0-.631-.458-.901-1.036-.901-.563,0-1.029.271-1.066.834h-.375c.052-.773.675-1.187,1.426-1.187.856,0,1.426.42,1.426,1.283v1.854c0,.256.038.405.293.405.03,0,.075,0,.105-.007v.33c-.053.015-.12.022-.18.022-.465,0-.593-.353-.593-.751-.203.533-.773.826-1.351.826-.728,0-1.292-.443-1.292-1.148ZM12.257,129.85v-.194l-1.344.082c-.578.038-.916.353-.916.796,0,.525.405.811.938.811.946,0,1.321-.766,1.321-1.494Z" fill="#0a0a0a"/>
        <path d="M14.041,127.831h.345l.03.721c.195-.519.781-.826,1.306-.826.856,0,1.329.57,1.329,1.403v2.455h-.375v-2.417c0-.631-.323-1.073-.991-1.073-.833,0-1.269.69-1.269,1.523v1.967h-.375v-3.753Z" fill="#0a0a0a"/>
        <path d="M20.057,129.145v.345h-1.87v-.345h1.87Z" fill="#0a0a0a"/>
        <path d="M21.721,131.142c-.616-.586-.706-1.457-.706-2.223s.09-1.637.706-2.215c.345-.322.811-.548,1.404-.548s1.059.233,1.396.548c.623.578.713,1.449.713,2.215s-.09,1.645-.713,2.223c-.338.315-.803.548-1.396.548s-1.066-.226-1.404-.548ZM24.236,130.886c.533-.51.586-1.336.586-1.967s-.053-1.448-.586-1.959c-.285-.271-.683-.421-1.111-.421s-.826.143-1.111.421c-.533.518-.593,1.328-.593,1.959s.052,1.449.593,1.967c.285.271.683.421,1.111.421s.826-.15,1.111-.421Z" fill="#0a0a0a"/>
        <path d="M26.693,131.239c-.397-.398-.54-.894-.54-1.532,0-.646.135-1.148.54-1.539.271-.263.653-.442,1.134-.442.796,0,1.404.488,1.494,1.269h-.398c-.083-.518-.511-.9-1.096-.9-.368,0-.661.12-.863.322-.353.353-.428.796-.428,1.291,0,.488.083.932.435,1.284.203.203.496.323.864.323.585,0,1.013-.384,1.096-.901h.391c-.098.773-.706,1.269-1.494,1.269-.48,0-.863-.173-1.134-.442Z" fill="#0a0a0a"/>
        <path d="M30.781,130.608v-2.433h-.886v-.345h.886v-1.036l.375-.091v1.127h1.179v.345h-1.179v2.38c0,.413.127.729.675.729.203,0,.36-.022.556-.067v.33c-.188.06-.375.09-.585.09-.736,0-1.021-.428-1.021-1.028Z" fill="#0a0a0a"/>
      </g>
      <g>
        <path d="M20.336,16.505c0-1.171.428-2.478,1.239-3.386l.233.18c-.736.946-1.119,1.974-1.119,3.206s.383,2.26,1.119,3.206l-.233.18c-.811-.908-1.239-2.215-1.239-3.386Z" fill="#0a0a0a"/>
        <path d="M22.654,15.177h.345l.03.735c.172-.503.63-.841,1.179-.841.646,0,1.021.331,1.171.811.203-.465.608-.811,1.239-.811.878,0,1.246.578,1.246,1.381v2.478h-.375v-2.432c0-.661-.255-1.074-.908-1.074-.706,0-1.119.623-1.119,1.381v2.125h-.39v-2.432c0-.661-.286-1.074-.909-1.074-.721,0-1.133.676-1.133,1.479v2.027h-.375v-3.753Z" fill="#0a0a0a"/>
        <path d="M29.651,13.607v.556h-.511v-.556h.511ZM29.591,15.177v3.753h-.383v-3.753h.383Z" fill="#0a0a0a"/>
        <path d="M30.963,18.18v-4.685h.375v4.669c0,.255.075.45.39.45.15,0,.218-.007.323-.022v.338c-.083.022-.18.045-.337.045-.48,0-.751-.248-.751-.795Z" fill="#0a0a0a"/>
        <path d="M32.861,18.18v-4.685h.375v4.669c0,.255.075.45.39.45.15,0,.218-.007.323-.022v.338c-.083.022-.18.045-.337.045-.48,0-.751-.248-.751-.795Z" fill="#0a0a0a"/>
        <path d="M35.216,13.607v.556h-.51v-.556h.51ZM35.156,15.177v3.753h-.383v-3.753h.383Z" fill="#0a0a0a"/>
        <path d="M36.866,18.592c-.413-.398-.57-.893-.57-1.539,0-.638.157-1.141.57-1.539.271-.255.646-.443,1.126-.443s.856.188,1.126.443c.413.398.571.901.571,1.539,0,.646-.158,1.141-.571,1.539-.27.255-.646.443-1.126.443s-.855-.188-1.126-.443ZM38.855,18.337c.353-.345.451-.788.451-1.284,0-.488-.098-.938-.451-1.284-.203-.203-.488-.33-.863-.33s-.661.127-.863.33c-.353.345-.45.796-.45,1.284,0,.496.098.938.45,1.284.203.203.488.331.863.331s.661-.127.863-.331Z" fill="#0a0a0a"/>
        <path d="M40.833,15.177h.345l.03.721c.195-.518.781-.826,1.306-.826.856,0,1.329.571,1.329,1.404v2.455h-.375v-2.417c0-.63-.323-1.073-.991-1.073-.833,0-1.269.69-1.269,1.524v1.967h-.375v-3.753Z" fill="#0a0a0a"/>
        <path d="M47.329,18.194l-.03.736h-.345v-5.435h.375v2.425c.195-.518.743-.849,1.291-.849.451,0,.803.15,1.059.391.405.375.601.976.601,1.599,0,.653-.203,1.253-.638,1.622-.255.218-.585.353-1.028.353-.518,0-1.089-.315-1.284-.841ZM49.378,18.405c.353-.315.511-.811.511-1.352,0-.488-.12-.976-.428-1.284-.203-.203-.473-.33-.841-.33-.353,0-.616.112-.811.292-.353.323-.488.766-.488,1.321,0,.518.143.991.496,1.314.195.18.45.3.788.3.331,0,.586-.098.773-.263Z" fill="#0a0a0a"/>
        <path d="M51.107,17.887c0-.668.511-1.081,1.262-1.134l1.381-.098v-.33c0-.631-.458-.901-1.036-.901-.563,0-1.029.27-1.066.833h-.375c.052-.773.675-1.187,1.426-1.187.856,0,1.426.42,1.426,1.284v1.854c0,.255.038.405.293.405.03,0,.075,0,.105-.007v.33c-.053.015-.12.022-.18.022-.465,0-.593-.353-.593-.75-.203.533-.773.826-1.351.826-.728,0-1.292-.443-1.292-1.148ZM53.75,17.196v-.195l-1.344.083c-.578.038-.916.353-.916.795,0,.526.405.811.938.811.946,0,1.321-.766,1.321-1.494Z" fill="#0a0a0a"/>
        <path d="M55.533,15.177h.345l.03.773c.165-.525.675-.811,1.208-.811.113,0,.24,0,.353.038v.36c-.12-.03-.248-.038-.368-.038-.871,0-1.193.721-1.193,1.554v1.877h-.375v-3.753Z" fill="#0a0a0a"/>
        <path d="M58.368,15.177h.345l.03.773c.165-.525.675-.811,1.208-.811.113,0,.24,0,.353.038v.36c-.12-.03-.248-.038-.368-.038-.871,0-1.193.721-1.193,1.554v1.877h-.375v-3.753Z" fill="#0a0a0a"/>
        <path d="M61.278,18.51c-.308-.36-.496-.871-.496-1.441,0-.473.075-.938.375-1.336.323-.428.766-.661,1.313-.661,1.036,0,1.659.826,1.659,1.824,0,.09,0,.143-.007.248h-2.965c.015.833.503,1.531,1.344,1.531.593,0,1.059-.39,1.148-.871h.391c-.113.706-.788,1.231-1.539,1.231-.541,0-.976-.24-1.224-.525ZM63.741,16.806c-.015-.713-.458-1.381-1.269-1.381-.795,0-1.291.646-1.306,1.381h2.575Z" fill="#0a0a0a"/>
        <path d="M65.223,18.18v-4.685h.375v4.669c0,.255.075.45.39.45.15,0,.218-.007.323-.022v.338c-.083.022-.181.045-.338.045-.48,0-.751-.248-.751-.795Z" fill="#0a0a0a"/>
        <path d="M66.797,17.789h.383c.06.616.548.886,1.164.886.623,0,1.089-.27,1.089-.781,0-.33-.233-.608-.691-.668l-.728-.098c-.631-.083-1.059-.383-1.059-.954,0-.668.646-1.104,1.351-1.104.811,0,1.396.466,1.419,1.141h-.375c-.052-.541-.495-.788-1.043-.788s-.968.292-.968.713c0,.308.165.54.728.615l.713.098c.706.098,1.036.571,1.036,1.021,0,.766-.691,1.164-1.472,1.164-.893,0-1.509-.473-1.546-1.246Z" fill="#0a0a0a"/>
        <path d="M70.337,19.711c.736-.946,1.119-1.975,1.119-3.206s-.383-2.26-1.119-3.206l.233-.18c.811.908,1.239,2.214,1.239,3.386s-.428,2.478-1.239,3.386l-.233-.18Z" fill="#0a0a0a"/>
      </g>
      <line x1="20.228" y1="110.847" x2="211.984" y2="110.847" fill="none"/>
      <g>
        <g>
          <path d="M13.873,113.564c-.563-.518-.646-1.456-.646-2.282,0-.817.083-1.756.646-2.274.255-.232.608-.428,1.111-.428s.864.188,1.111.428c.556.533.646,1.457.646,2.274,0,.826-.083,1.765-.646,2.282-.248.233-.608.429-1.111.429s-.855-.195-1.111-.429ZM15.847,113.324c.488-.457.518-1.358.518-2.042,0-.675-.023-1.576-.518-2.034-.203-.188-.473-.308-.864-.308-.383,0-.66.128-.855.308-.496.458-.518,1.359-.518,2.034,0,.684.022,1.585.518,2.042.195.181.473.309.855.309.391,0,.668-.12.864-.309Z" fill="#0a0a0a"/>
          <g>
            <path d="M9.192,95.756l2.169-2.343c.345-.375.518-.75.518-1.141,0-.616-.42-1.059-1.134-1.059-.743,0-1.164.488-1.164,1.336h-.398c0-1.051.638-1.696,1.562-1.696.856,0,1.509.548,1.509,1.419,0,.466-.226.961-.601,1.358l-2.035,2.17h2.77v.36h-3.198v-.405Z" fill="#0a0a0a"/>
            <path d="M13.873,95.838c-.563-.518-.646-1.456-.646-2.282,0-.817.083-1.756.646-2.274.255-.232.608-.428,1.111-.428s.864.188,1.111.428c.556.533.646,1.457.646,2.274,0,.826-.083,1.765-.646,2.282-.248.233-.608.429-1.111.429s-.855-.195-1.111-.429ZM15.847,95.598c.488-.457.518-1.358.518-2.042,0-.675-.023-1.576-.518-2.034-.203-.188-.473-.308-.864-.308-.383,0-.66.128-.855.308-.496.458-.518,1.359-.518,2.034,0,.684.022,1.585.518,2.042.195.181.473.309.855.309.391,0,.668-.12.864-.309Z" fill="#0a0a0a"/>
          </g>
          <g>
            <path d="M11.347,77.21h-2.598v-.45l2.252-3.528h.443l-2.312,3.604h2.215v-1.72h.383v1.72h.773v.375h-.773v1.224h-.383v-1.224Z" fill="#0a0a0a"/>
            <path d="M13.873,78.11c-.563-.518-.646-1.456-.646-2.282,0-.818.083-1.756.646-2.274.255-.232.608-.428,1.111-.428s.864.188,1.111.428c.556.533.646,1.456.646,2.274,0,.826-.083,1.765-.646,2.282-.248.233-.608.429-1.111.429s-.855-.195-1.111-.429ZM15.847,77.87c.488-.458.518-1.358.518-2.042,0-.675-.023-1.576-.518-2.034-.203-.188-.473-.308-.864-.308-.383,0-.66.128-.855.308-.496.458-.518,1.359-.518,2.034,0,.684.022,1.584.518,2.042.195.181.473.309.855.309.391,0,.668-.12.864-.309Z" fill="#0a0a0a"/>
          </g>
          <g>
            <path d="M9.312,60.173c-.397-.533-.48-1.329-.48-2.072,0-.796.105-1.659.616-2.207.248-.263.638-.496,1.179-.496.878,0,1.509.541,1.554,1.359h-.383c-.053-.601-.451-.999-1.171-.999-1.164,0-1.404,1.253-1.404,2.492.188-.548.758-.916,1.374-.916,1.081,0,1.704.698,1.704,1.727,0,.961-.616,1.749-1.697,1.749-.608,0-1.043-.308-1.292-.638ZM11.918,59.062c0-.721-.413-1.381-1.314-1.381-.751,0-1.276.608-1.276,1.366,0,.728.451,1.404,1.284,1.404.901,0,1.307-.661,1.307-1.389Z" fill="#0a0a0a"/>
            <path d="M13.873,60.384c-.563-.518-.646-1.457-.646-2.282,0-.818.083-1.757.646-2.275.255-.232.608-.428,1.111-.428s.864.188,1.111.428c.556.533.646,1.457.646,2.275,0,.826-.083,1.764-.646,2.282-.248.232-.608.428-1.111.428s-.855-.195-1.111-.428ZM15.847,60.144c.488-.458.518-1.359.518-2.042,0-.676-.023-1.577-.518-2.035-.203-.188-.473-.308-.864-.308-.383,0-.66.127-.855.308-.496.458-.518,1.359-.518,2.035,0,.683.022,1.584.518,2.042.195.18.473.308.855.308.391,0,.668-.12.864-.308Z" fill="#0a0a0a"/>
          </g>
          <g>
            <path d="M8.817,41.605c0-.585.375-1.148.969-1.344-.511-.188-.849-.683-.849-1.201,0-.871.713-1.389,1.607-1.389s1.606.518,1.606,1.389c0,.518-.338,1.014-.849,1.201.593.195.969.758.969,1.344,0,.931-.796,1.479-1.727,1.479s-1.727-.548-1.727-1.479ZM11.888,41.583c0-.743-.601-1.156-1.344-1.156s-1.344.413-1.344,1.156.601,1.156,1.344,1.156,1.344-.413,1.344-1.156ZM11.76,39.045c0-.668-.548-1.036-1.216-1.036s-1.216.368-1.216,1.036c0,.684.533,1.051,1.216,1.051s1.216-.368,1.216-1.051Z" fill="#0a0a0a"/>
            <path d="M13.873,42.656c-.563-.518-.646-1.457-.646-2.282,0-.818.083-1.757.646-2.275.255-.232.608-.428,1.111-.428s.864.188,1.111.428c.556.533.646,1.457.646,2.275,0,.826-.083,1.764-.646,2.282-.248.232-.608.428-1.111.428s-.855-.195-1.111-.428ZM15.847,42.416c.488-.458.518-1.359.518-2.042,0-.676-.023-1.577-.518-2.035-.203-.188-.473-.308-.864-.308-.383,0-.66.127-.855.308-.496.458-.518,1.359-.518,2.035,0,.683.022,1.584.518,2.042.195.18.473.308.855.308.391,0,.668-.12.864-.308Z" fill="#0a0a0a"/>
          </g>
          <g>
            <path d="M5.697,21.483v-.42l1.426-1.014h.338v5.203h-.375v-4.737l-1.389.969Z" fill="#0a0a0a"/>
            <path d="M9.373,24.929c-.563-.518-.646-1.457-.646-2.282,0-.818.083-1.757.646-2.275.255-.232.608-.428,1.111-.428s.863.188,1.111.428c.556.533.646,1.457.646,2.275,0,.826-.083,1.764-.646,2.282-.248.232-.608.428-1.111.428s-.856-.195-1.111-.428ZM11.348,24.688c.488-.458.518-1.359.518-2.042,0-.676-.022-1.577-.518-2.035-.203-.188-.473-.308-.863-.308-.383,0-.661.127-.856.308-.496.458-.518,1.359-.518,2.035,0,.683.022,1.584.518,2.042.195.18.473.308.856.308.39,0,.668-.12.863-.308Z" fill="#0a0a0a"/>
            <path d="M13.873,24.929c-.563-.518-.646-1.457-.646-2.282,0-.818.083-1.757.646-2.275.255-.232.608-.428,1.111-.428s.863.188,1.111.428c.556.533.646,1.457.646,2.275,0,.826-.083,1.764-.646,2.282-.248.232-.608.428-1.111.428s-.856-.195-1.111-.428ZM15.848,24.688c.488-.458.518-1.359.518-2.042,0-.676-.022-1.577-.518-2.035-.203-.188-.473-.308-.863-.308-.383,0-.661.127-.856.308-.496.458-.518,1.359-.518,2.035,0,.683.022,1.584.518,2.042.195.18.473.308.856.308.39,0,.668-.12.863-.308Z" fill="#0a0a0a"/>
          </g>
        </g>
        <line x1="20.228" y1="110.847" x2="20.228" y2="22.21" fill="none"/>
        <g>
          <line x1="20.228" y1="110.847" x2="211.984" y2="110.847" fill="none" stroke="#d0d2d3" stroke-miterlimit="10" stroke-width=".25"/>
          <line x1="20.228" y1="93.119" x2="211.984" y2="93.119" fill="none" stroke="#d0d2d3" stroke-miterlimit="10" stroke-width=".25"/>
          <line x1="20.228" y1="75.392" x2="211.984" y2="75.392" fill="none" stroke="#d0d2d3" stroke-miterlimit="10" stroke-width=".25"/>
          <line x1="20.228" y1="57.665" x2="211.984" y2="57.665" fill="none" stroke="#d0d2d3" stroke-miterlimit="10" stroke-width=".25"/>
          <line x1="20.228" y1="39.937" x2="211.984" y2="39.937" fill="none" stroke="#d0d2d3" stroke-miterlimit="10" stroke-width=".25"/>
          <line x1="20.228" y1="22.21" x2="211.984" y2="22.21" fill="none" stroke="#d0d2d3" stroke-miterlimit="10" stroke-width=".25"/>
        </g>
      </g>
      <g>
        <polygon points="206.344 110.847 25.868 110.847 25.868 24.09 37.147 37.079 48.427 33.821 59.707 36.627 70.987 38.858 82.266 46.329 93.546 51.847 104.826 40.348 116.106 37.372 127.386 49.309 138.665 54.748 149.945 73.171 161.225 73.191 172.505 78.341 183.784 65.453 195.064 69.767 206.344 74.148 206.344 110.847" fill="#bbbdbf"/>
        <polygon points="206.344 110.847 25.868 110.847 25.868 104.793 37.147 105.266 48.427 100.894 59.707 90.179 70.987 90.625 82.266 90.472 93.546 85.93 104.826 82.005 116.106 82.371 127.386 87.621 138.665 102.044 149.945 110.847 161.225 110.847 172.505 110.847 183.784 96.273 195.064 94.158 206.344 103.658 206.344 110.847" fill="#24829a"/>
      </g>
      <g>
        <g>
          <path d="M196.546,118.812l2.17-2.343c.345-.375.518-.75.518-1.141,0-.616-.421-1.059-1.134-1.059-.743,0-1.163.488-1.163,1.336h-.398c0-1.051.639-1.696,1.562-1.696.856,0,1.509.548,1.509,1.419,0,.466-.225.961-.601,1.358l-2.034,2.17h2.771v.36h-3.198v-.405Z" fill="#0a0a0a"/>
          <path d="M201.227,118.895c-.563-.518-.646-1.456-.646-2.282,0-.817.083-1.756.646-2.274.255-.232.607-.428,1.11-.428s.863.188,1.111.428c.556.533.646,1.457.646,2.274,0,.826-.082,1.765-.646,2.282-.248.233-.608.429-1.111.429s-.855-.195-1.11-.429ZM203.2,118.654c.488-.457.519-1.358.519-2.042,0-.675-.022-1.576-.519-2.034-.202-.188-.473-.308-.863-.308-.383,0-.66.128-.855.308-.495.458-.519,1.359-.519,2.034,0,.684.023,1.585.519,2.042.195.181.473.309.855.309.391,0,.668-.12.863-.309Z" fill="#0a0a0a"/>
          <path d="M205.021,118.812l2.17-2.343c.345-.375.518-.75.518-1.141,0-.616-.421-1.059-1.134-1.059-.743,0-1.163.488-1.163,1.336h-.398c0-1.051.639-1.696,1.562-1.696.856,0,1.509.548,1.509,1.419,0,.466-.225.961-.601,1.358l-2.034,2.17h2.771v.36h-3.198v-.405Z" fill="#0a0a0a"/>
          <path d="M209.011,117.709h.375c.038.735.548,1.254,1.337,1.254.833,0,1.306-.586,1.306-1.374,0-.759-.413-1.389-1.246-1.389-.466,0-.923.18-1.171.57h-.443l.211-2.755h2.845v.353h-2.522l-.173,2.026c.285-.367.788-.548,1.254-.548,1.073,0,1.622.751,1.622,1.742,0,.945-.594,1.734-1.682,1.734-1.036,0-1.689-.698-1.712-1.614Z" fill="#0a0a0a"/>
          <path d="M214.472,115.524l-1.299-.391.105-.338,1.284.45-.038-1.351h.353l-.029,1.351,1.275-.45.113.338-1.299.391.811,1.073-.285.21-.766-1.118-.766,1.118-.285-.21.825-1.073Z" fill="#0a0a0a"/>
        </g>
        <g>
          <path d="M175.846,118.812l2.17-2.343c.345-.375.518-.75.518-1.141,0-.616-.42-1.059-1.134-1.059-.743,0-1.163.488-1.163,1.336h-.398c0-1.051.639-1.696,1.562-1.696.856,0,1.509.548,1.509,1.419,0,.466-.225.961-.601,1.358l-2.034,2.17h2.771v.36h-3.198v-.405Z" fill="#0a0a0a"/>
          <path d="M180.525,118.895c-.562-.518-.646-1.456-.646-2.282,0-.817.083-1.756.646-2.274.256-.232.608-.428,1.111-.428s.863.188,1.111.428c.556.533.646,1.457.646,2.274,0,.826-.082,1.765-.646,2.282-.248.233-.608.429-1.111.429s-.855-.195-1.111-.429ZM182.5,118.654c.488-.457.519-1.358.519-2.042,0-.675-.022-1.576-.519-2.034-.202-.188-.473-.308-.863-.308-.383,0-.66.128-.855.308-.496.458-.519,1.359-.519,2.034,0,.684.022,1.585.519,2.042.195.181.473.309.855.309.391,0,.668-.12.863-.309Z" fill="#0a0a0a"/>
          <path d="M184.32,118.812l2.17-2.343c.345-.375.518-.75.518-1.141,0-.616-.42-1.059-1.134-1.059-.743,0-1.163.488-1.163,1.336h-.398c0-1.051.639-1.696,1.562-1.696.856,0,1.509.548,1.509,1.419,0,.466-.225.961-.601,1.358l-2.034,2.17h2.771v.36h-3.198v-.405Z" fill="#0a0a0a"/>
          <path d="M188.318,117.679h.383c.007.661.42,1.284,1.313,1.284.796,0,1.291-.474,1.291-1.134,0-.781-.525-1.142-1.313-1.142h-.293v-.36h.293c.713,0,1.201-.33,1.201-1.028,0-.601-.533-1.028-1.171-1.028-.796,0-1.276.503-1.284,1.201h-.383c.015-.931.706-1.562,1.667-1.562.87,0,1.554.562,1.554,1.389,0,.563-.308,1.051-.908,1.209.652.157,1.028.698,1.028,1.321,0,.863-.729,1.494-1.682,1.494-1.059,0-1.674-.698-1.696-1.645Z" fill="#0a0a0a"/>
        </g>
        <g>
          <path d="M154.044,118.812l2.17-2.343c.345-.375.518-.75.518-1.141,0-.616-.421-1.059-1.134-1.059-.743,0-1.163.488-1.163,1.336h-.398c0-1.051.639-1.696,1.562-1.696.856,0,1.509.548,1.509,1.419,0,.466-.225.961-.601,1.358l-2.034,2.17h2.771v.36h-3.198v-.405Z" fill="#0a0a0a"/>
          <path d="M158.725,118.895c-.563-.518-.646-1.456-.646-2.282,0-.817.083-1.756.646-2.274.255-.232.607-.428,1.11-.428s.863.188,1.111.428c.556.533.646,1.457.646,2.274,0,.826-.082,1.765-.646,2.282-.248.233-.608.429-1.111.429s-.855-.195-1.11-.429ZM160.698,118.654c.488-.457.519-1.358.519-2.042,0-.675-.022-1.576-.519-2.034-.202-.188-.473-.308-.863-.308-.383,0-.66.128-.855.308-.495.458-.519,1.359-.519,2.034,0,.684.023,1.585.519,2.042.195.181.473.309.855.309.391,0,.668-.12.863-.309Z" fill="#0a0a0a"/>
          <path d="M162.519,118.812l2.17-2.343c.345-.375.518-.75.518-1.141,0-.616-.421-1.059-1.134-1.059-.743,0-1.163.488-1.163,1.336h-.398c0-1.051.639-1.696,1.562-1.696.856,0,1.509.548,1.509,1.419,0,.466-.225.961-.601,1.358l-2.034,2.17h2.771v.36h-3.198v-.405Z" fill="#0a0a0a"/>
          <path d="M166.306,115.449v-.421l1.427-1.013h.338v5.202h-.376v-4.737l-1.389.969Z" fill="#0a0a0a"/>
        </g>
        <g>
          <path d="M131.305,118.812l2.169-2.343c.345-.375.518-.75.518-1.141,0-.616-.42-1.059-1.134-1.059-.743,0-1.164.488-1.164,1.336h-.398c0-1.051.638-1.696,1.562-1.696.856,0,1.509.548,1.509,1.419,0,.466-.226.961-.601,1.358l-2.035,2.17h2.77v.36h-3.198v-.405Z" fill="#0a0a0a"/>
          <path d="M135.986,118.895c-.563-.518-.646-1.456-.646-2.282,0-.817.083-1.756.646-2.274.255-.232.608-.428,1.111-.428s.863.188,1.111.428c.556.533.646,1.457.646,2.274,0,.826-.082,1.765-.646,2.282-.248.233-.608.429-1.111.429s-.855-.195-1.111-.429ZM137.96,118.654c.488-.457.519-1.358.519-2.042,0-.675-.022-1.576-.519-2.034-.202-.188-.473-.308-.863-.308-.383,0-.66.128-.855.308-.496.458-.518,1.359-.518,2.034,0,.684.022,1.585.518,2.042.195.181.473.309.855.309.391,0,.668-.12.863-.309Z" fill="#0a0a0a"/>
          <path d="M139.555,115.449v-.421l1.427-1.013h.338v5.202h-.376v-4.737l-1.389.969Z" fill="#0a0a0a"/>
          <path d="M142.631,117.957h.39c.038.6.488,1.006,1.179,1.006,1.254,0,1.389-1.412,1.389-2.605-.157.608-.75.991-1.366.991-1.065,0-1.704-.684-1.704-1.712,0-.953.631-1.727,1.697-1.727.607,0,1.065.3,1.313.631.397.533.442,1.328.442,2.071,0,.714-.098,1.6-.555,2.17-.264.33-.653.541-1.217.541-.894,0-1.517-.549-1.568-1.366ZM145.49,115.651c0-.721-.45-1.381-1.283-1.381-.901,0-1.307.646-1.307,1.366s.421,1.366,1.314,1.366c.721,0,1.275-.608,1.275-1.352Z" fill="#0a0a0a"/>
        </g>
        <g>
          <path d="M109.034,118.812l2.169-2.343c.345-.375.518-.75.518-1.141,0-.616-.42-1.059-1.134-1.059-.743,0-1.164.488-1.164,1.336h-.398c0-1.051.638-1.696,1.562-1.696.856,0,1.509.548,1.509,1.419,0,.466-.225.961-.601,1.358l-2.035,2.17h2.771v.36h-3.198v-.405Z" fill="#0a0a0a"/>
          <path d="M113.715,118.895c-.563-.518-.646-1.456-.646-2.282,0-.817.083-1.756.646-2.274.255-.232.608-.428,1.111-.428s.863.188,1.111.428c.556.533.646,1.457.646,2.274,0,.826-.083,1.765-.646,2.282-.248.233-.608.429-1.111.429s-.856-.195-1.111-.429ZM115.689,118.654c.488-.457.518-1.358.518-2.042,0-.675-.022-1.576-.518-2.034-.203-.188-.473-.308-.863-.308-.383,0-.661.128-.856.308-.496.458-.518,1.359-.518,2.034,0,.684.022,1.585.518,2.042.195.181.473.309.856.309.39,0,.668-.12.863-.309Z" fill="#0a0a0a"/>
          <path d="M117.284,115.449v-.421l1.426-1.013h.338v5.202h-.375v-4.737l-1.389.969Z" fill="#0a0a0a"/>
          <path d="M123.039,114.376h-3.025v-.36h3.423v.397l-2.357,4.805h-.436l2.395-4.842Z" fill="#0a0a0a"/>
        </g>
        <g>
          <path d="M86.261,118.812l2.169-2.343c.345-.375.518-.75.518-1.141,0-.616-.42-1.059-1.134-1.059-.743,0-1.164.488-1.164,1.336h-.398c0-1.051.638-1.696,1.562-1.696.856,0,1.509.548,1.509,1.419,0,.466-.225.961-.601,1.358l-2.035,2.17h2.771v.36h-3.198v-.405Z" fill="#0a0a0a"/>
          <path d="M90.941,118.895c-.563-.518-.646-1.456-.646-2.282,0-.817.083-1.756.646-2.274.255-.232.608-.428,1.111-.428s.863.188,1.111.428c.556.533.646,1.457.646,2.274,0,.826-.083,1.765-.646,2.282-.248.233-.608.429-1.111.429s-.856-.195-1.111-.429ZM92.916,118.654c.488-.457.518-1.358.518-2.042,0-.675-.022-1.576-.518-2.034-.203-.188-.473-.308-.863-.308-.383,0-.661.128-.856.308-.496.458-.518,1.359-.518,2.034,0,.684.022,1.585.518,2.042.195.181.473.309.856.309.39,0,.668-.12.863-.309Z" fill="#0a0a0a"/>
          <path d="M94.511,115.449v-.421l1.426-1.013h.338v5.202h-.375v-4.737l-1.389.969Z" fill="#0a0a0a"/>
          <path d="M97.458,117.709h.375c.038.735.548,1.254,1.336,1.254.833,0,1.306-.586,1.306-1.374,0-.759-.413-1.389-1.246-1.389-.465,0-.923.18-1.171.57h-.443l.21-2.755h2.845v.353h-2.522l-.173,2.026c.286-.367.789-.548,1.254-.548,1.074,0,1.622.751,1.622,1.742,0,.945-.593,1.734-1.682,1.734-1.036,0-1.689-.698-1.711-1.614Z" fill="#0a0a0a"/>
        </g>
        <g>
          <path d="M63.683,118.812l2.169-2.343c.345-.375.518-.75.518-1.141,0-.616-.42-1.059-1.134-1.059-.743,0-1.164.488-1.164,1.336h-.398c0-1.051.638-1.696,1.562-1.696.856,0,1.509.548,1.509,1.419,0,.466-.225.961-.601,1.358l-2.035,2.17h2.771v.36h-3.198v-.405Z" fill="#0a0a0a"/>
          <path d="M68.363,118.895c-.563-.518-.646-1.456-.646-2.282,0-.817.083-1.756.646-2.274.255-.232.608-.428,1.111-.428s.863.188,1.111.428c.556.533.646,1.457.646,2.274,0,.826-.083,1.765-.646,2.282-.248.233-.608.429-1.111.429s-.856-.195-1.111-.429ZM70.338,118.654c.488-.457.518-1.358.518-2.042,0-.675-.022-1.576-.518-2.034-.203-.188-.473-.308-.863-.308-.383,0-.661.128-.856.308-.496.458-.518,1.359-.518,2.034,0,.684.022,1.585.518,2.042.195.181.473.309.856.309.39,0,.668-.12.863-.309Z" fill="#0a0a0a"/>
          <path d="M71.933,115.449v-.421l1.426-1.013h.338v5.202h-.375v-4.737l-1.389.969Z" fill="#0a0a0a"/>
          <path d="M74.887,117.679h.383c.007.661.42,1.284,1.314,1.284.796,0,1.291-.474,1.291-1.134,0-.781-.525-1.142-1.313-1.142h-.293v-.36h.293c.713,0,1.201-.33,1.201-1.028,0-.601-.533-1.028-1.171-1.028-.796,0-1.276.503-1.284,1.201h-.383c.015-.931.706-1.562,1.667-1.562.871,0,1.554.562,1.554,1.389,0,.563-.308,1.051-.909,1.209.653.157,1.029.698,1.029,1.321,0,.863-.729,1.494-1.682,1.494-1.059,0-1.674-.698-1.697-1.645Z" fill="#0a0a0a"/>
        </g>
        <g>
          <path d="M41.88,118.812l2.169-2.343c.345-.375.518-.75.518-1.141,0-.616-.42-1.059-1.134-1.059-.743,0-1.164.488-1.164,1.336h-.398c0-1.051.638-1.696,1.562-1.696.856,0,1.509.548,1.509,1.419,0,.466-.226.961-.601,1.358l-2.035,2.17h2.77v.36h-3.198v-.405Z" fill="#0a0a0a"/>
          <path d="M46.561,118.895c-.563-.518-.646-1.456-.646-2.282,0-.817.083-1.756.646-2.274.255-.232.608-.428,1.111-.428s.864.188,1.111.428c.556.533.646,1.457.646,2.274,0,.826-.083,1.765-.646,2.282-.248.233-.608.429-1.111.429s-.855-.195-1.111-.429ZM48.536,118.654c.488-.457.518-1.358.518-2.042,0-.675-.023-1.576-.518-2.034-.203-.188-.473-.308-.864-.308-.383,0-.66.128-.855.308-.496.458-.518,1.359-.518,2.034,0,.684.022,1.585.518,2.042.195.181.473.309.855.309.391,0,.668-.12.864-.309Z" fill="#0a0a0a"/>
          <path d="M50.13,115.449v-.421l1.427-1.013h.338v5.202h-.375v-4.737l-1.389.969Z" fill="#0a0a0a"/>
          <path d="M52.875,115.449v-.421l1.426-1.013h.338v5.202h-.375v-4.737l-1.389.969Z" fill="#0a0a0a"/>
        </g>
        <g>
          <path d="M17.629,118.812l2.169-2.343c.345-.375.518-.75.518-1.141,0-.616-.42-1.059-1.134-1.059-.743,0-1.164.488-1.164,1.336h-.398c0-1.051.638-1.696,1.562-1.696.856,0,1.509.548,1.509,1.419,0,.466-.226.961-.601,1.358l-2.035,2.17h2.77v.36h-3.198v-.405Z" fill="#0a0a0a"/>
          <path d="M22.31,118.895c-.563-.518-.646-1.456-.646-2.282,0-.817.083-1.756.646-2.274.255-.232.608-.428,1.111-.428s.864.188,1.111.428c.556.533.646,1.457.646,2.274,0,.826-.083,1.765-.646,2.282-.248.233-.608.429-1.111.429s-.855-.195-1.111-.429ZM24.285,118.654c.488-.457.518-1.358.518-2.042,0-.675-.023-1.576-.518-2.034-.203-.188-.473-.308-.864-.308-.383,0-.66.128-.855.308-.496.458-.518,1.359-.518,2.034,0,.684.022,1.585.518,2.042.195.181.473.309.855.309.391,0,.668-.12.864-.309Z" fill="#0a0a0a"/>
          <path d="M26.81,118.895c-.563-.518-.646-1.456-.646-2.282,0-.817.083-1.756.646-2.274.255-.232.608-.428,1.111-.428s.864.188,1.111.428c.556.533.646,1.457.646,2.274,0,.826-.083,1.765-.646,2.282-.248.233-.608.429-1.111.429s-.855-.195-1.111-.429ZM28.785,118.654c.488-.457.518-1.358.518-2.042,0-.675-.023-1.576-.518-2.034-.203-.188-.473-.308-.864-.308-.383,0-.66.128-.855.308-.496.458-.518,1.359-.518,2.034,0,.684.022,1.585.518,2.042.195.181.473.309.855.309.391,0,.668-.12.864-.309Z" fill="#0a0a0a"/>
          <path d="M30.709,117.957h.391c.037.6.488,1.006,1.178,1.006,1.254,0,1.389-1.412,1.389-2.605-.158.608-.751.991-1.366.991-1.066,0-1.705-.684-1.705-1.712,0-.953.631-1.727,1.697-1.727.608,0,1.066.3,1.314.631.398.533.443,1.328.443,2.071,0,.714-.098,1.6-.556,2.17-.263.33-.653.541-1.216.541-.893,0-1.516-.549-1.569-1.366ZM33.569,115.651c0-.721-.451-1.381-1.284-1.381-.901,0-1.306.646-1.306,1.366s.42,1.366,1.313,1.366c.721,0,1.276-.608,1.276-1.352Z" fill="#0a0a0a"/>
        </g>
      </g>
      <g>
        <path d="M232.342,94.533c-.616-.585-.706-1.456-.706-2.222s.09-1.637.706-2.215c.345-.323.811-.548,1.403-.548s1.059.232,1.396.548c.623.578.713,1.449.713,2.215s-.09,1.644-.713,2.222c-.338.315-.803.548-1.396.548s-1.065-.225-1.403-.548ZM234.856,94.278c.533-.511.586-1.337.586-1.967s-.053-1.449-.586-1.96c-.285-.271-.684-.42-1.111-.42s-.825.143-1.111.42c-.532.519-.593,1.329-.593,1.96s.053,1.448.593,1.967c.286.271.684.42,1.111.42s.826-.149,1.111-.42Z" fill="#0a0a0a"/>
        <path d="M237.403,94v-2.432h-.886v-.346h.886v-1.036l.376-.09v1.126h1.179v.346h-1.179v2.38c0,.412.127.728.675.728.203,0,.36-.022.556-.067v.33c-.188.061-.375.091-.585.091-.736,0-1.021-.429-1.021-1.029Z" fill="#0a0a0a"/>
        <path d="M240.284,89.541v2.372c.21-.48.766-.796,1.291-.796.855,0,1.344.541,1.344,1.382v2.478h-.376v-2.455c0-.661-.314-1.051-.99-1.051-.916,0-1.269.818-1.269,1.629v1.877h-.376v-5.436h.376Z" fill="#0a0a0a"/>
        <path d="M244.506,94.556c-.308-.36-.495-.871-.495-1.441,0-.473.075-.938.375-1.336.323-.428.766-.661,1.313-.661,1.036,0,1.659.826,1.659,1.824,0,.091,0,.143-.007.248h-2.966c.016.833.503,1.531,1.344,1.531.594,0,1.059-.39,1.148-.87h.391c-.112.705-.788,1.23-1.539,1.23-.54,0-.976-.24-1.224-.525ZM246.969,92.852c-.016-.713-.458-1.381-1.27-1.381-.795,0-1.291.646-1.306,1.381h2.575Z" fill="#0a0a0a"/>
        <path d="M248.466,91.223h.346l.03.773c.165-.525.675-.811,1.208-.811.113,0,.24,0,.354.037v.36c-.12-.03-.248-.037-.368-.037-.871,0-1.193.721-1.193,1.554v1.877h-.376v-3.754Z" fill="#0a0a0a"/>
      </g>
      <rect x="220.792" y="90.869" width="8.504" height="4.252" fill="#bbbdbf"/>
      <g>
        <path d="M231.688,98.94l1.689,4.82,1.666-4.82h.413l-1.892,5.323h-.398l-1.892-5.323h.413Z" fill="#0a0a0a"/>
        <path d="M236.271,103.843c-.309-.36-.496-.871-.496-1.441,0-.473.075-.938.376-1.336.322-.428.766-.661,1.313-.661,1.036,0,1.659.826,1.659,1.824,0,.091,0,.143-.008.248h-2.965c.015.833.503,1.531,1.344,1.531.593,0,1.059-.39,1.148-.87h.391c-.113.705-.789,1.23-1.539,1.23-.541,0-.977-.24-1.224-.525ZM238.733,102.139c-.015-.713-.458-1.381-1.269-1.381-.796,0-1.291.646-1.307,1.381h2.575Z" fill="#0a0a0a"/>
        <path d="M240.231,100.51h.345l.03.721c.195-.518.781-.826,1.307-.826.855,0,1.328.571,1.328,1.404v2.455h-.375v-2.418c0-.63-.323-1.073-.991-1.073-.833,0-1.269.69-1.269,1.524v1.967h-.375v-3.754Z" fill="#0a0a0a"/>
        <path d="M244.829,103.843c-.309-.36-.496-.871-.496-1.441,0-.473.075-.938.376-1.336.322-.428.766-.661,1.313-.661,1.036,0,1.659.826,1.659,1.824,0,.091,0,.143-.008.248h-2.965c.015.833.503,1.531,1.344,1.531.593,0,1.059-.39,1.148-.87h.391c-.113.705-.789,1.23-1.539,1.23-.541,0-.977-.24-1.224-.525ZM247.291,102.139c-.015-.713-.458-1.381-1.269-1.381-.796,0-1.291.646-1.307,1.381h2.575Z" fill="#0a0a0a"/>
        <path d="M250.838,100.862h-2.402v-.353h2.808v.413l-2.402,2.98h2.425v.36h-2.83v-.421l2.402-2.98Z" fill="#0a0a0a"/>
        <path d="M252.283,102.935v-2.425h.375v2.402c0,.653.323,1.089.983,1.089.871,0,1.231-.698,1.231-1.539v-1.952h.376v3.754h-.346l-.03-.706c-.21.495-.69.811-1.254.811-.848,0-1.336-.593-1.336-1.434Z" fill="#0a0a0a"/>
        <path d="M256.881,103.843c-.308-.36-.495-.871-.495-1.441,0-.473.075-.938.375-1.336.323-.428.766-.661,1.313-.661,1.036,0,1.659.826,1.659,1.824,0,.091,0,.143-.007.248h-2.966c.016.833.503,1.531,1.344,1.531.594,0,1.059-.39,1.148-.87h.391c-.112.705-.788,1.23-1.539,1.23-.54,0-.976-.24-1.224-.525ZM259.344,102.139c-.016-.713-.458-1.381-1.27-1.381-.795,0-1.291.646-1.306,1.381h2.575Z" fill="#0a0a0a"/>
        <path d="M260.826,103.513v-4.685h.375v4.67c0,.255.075.45.391.45.15,0,.218-.008.322-.022v.338c-.082.022-.18.045-.337.045-.48,0-.751-.248-.751-.796Z" fill="#0a0a0a"/>
        <path d="M262.431,103.22c0-.668.511-1.081,1.261-1.134l1.382-.098v-.33c0-.631-.458-.9-1.036-.9-.562,0-1.028.27-1.066.833h-.375c.053-.773.676-1.187,1.427-1.187.855,0,1.426.421,1.426,1.284v1.854c0,.255.038.405.293.405.03,0,.075,0,.105-.008v.33c-.053.016-.12.022-.181.022-.465,0-.593-.353-.593-.75-.203.533-.773.825-1.352.825-.728,0-1.291-.442-1.291-1.148ZM265.073,102.529v-.195l-1.344.083c-.578.037-.916.353-.916.795,0,.526.405.812.938.812.946,0,1.321-.766,1.321-1.494Z" fill="#0a0a0a"/>
      </g>
      <rect x="220.792" y="100.157" width="8.504" height="4.252" fill="#24829a"/>
    </g>
  </g>
</svg>
