<svg width="2000" height="1001" xmlns="http://www.w3.org/2000/svg" xmlns:xlink="http://www.w3.org/1999/xlink" xml:space="preserve" overflow="hidden"><defs><clipPath id="clip0"><rect x="355" y="178" width="2000" height="1001"/></clipPath><clipPath id="clip1"><rect x="1361" y="188" width="994" height="990"/></clipPath><clipPath id="clip2"><rect x="2193" y="198" width="155" height="110"/></clipPath><clipPath id="clip3"><rect x="2193" y="198" width="155" height="110"/></clipPath><clipPath id="clip4"><rect x="2193" y="198" width="155" height="110"/></clipPath></defs><g clip-path="url(#clip0)" transform="translate(-355 -178)"><rect x="1362" y="189" width="993" height="990" fill="#FFFFFF"/><g><path d="M1458.5 906.53 2266.5 906.53M1458.5 775.526 2266.5 775.526M1458.5 643.521 2266.5 643.521M1458.5 512.517 2266.5 512.517M1458.5 380.5 2266.5 380.5" stroke="#D9D9D9" stroke-width="3.4375" stroke-linejoin="round" stroke-miterlimit="10" fill="none"/></g><g><path d="M1458.5 1037.5 2266.5 1037.5" stroke="#000000" stroke-width="3.4375" stroke-linejoin="round" stroke-miterlimit="10" fill="none" fill-rule="evenodd"/></g><g><path d="M1458.5 1037.5 1458.5 1047.53M1490.55 1037.5 1490.55 1047.53M1522.55 1037.5 1522.55 1047.53M1554.55 1037.5 1554.55 1047.53M1586.55 1037.5 1586.55 1047.53M1618.55 1037.5 1618.55 1047.53M1650.55 1037.5 1650.55 1047.53M1682.56 1037.5 1682.56 1047.53M1713.56 1037.5 1713.56 1047.53M1745.56 1037.5 1745.56 1047.53M1777.56 1037.5 1777.56 1047.53M1809.56 1037.5 1809.56 1047.53M1841.56 1037.5 1841.56 1047.53M1873.56 1037.5 1873.56 1047.53M1905.56 1037.5 1905.56 1047.53M1937.56 1037.5 1937.56 1047.53M1968.56 1037.5 1968.56 1047.53M2000.57 1037.5 2000.57 1047.53M2032.57 1037.5 2032.57 1047.53M2064.57 1037.5 2064.57 1047.53M2096.57 1037.5 2096.57 1047.53M2128.57 1037.5 2128.57 1047.53M2160.57 1037.5 2160.57 1047.53M2192.57 1037.5 2192.57 1047.53M2223.57 1037.5 2223.57 1047.53M2255.5 1037.5 2255.5 1047.53M1458.5 1037.5 1458.5 1050.5M1618.55 1037.5 1618.55 1050.5M1777.56 1037.5 1777.56 1050.5M1937.56 1037.5 1937.56 1050.5M2096.57 1037.5 2096.57 1050.5M2255.5 1037.5 2255.5 1050.5" stroke="#000000" stroke-width="3.4375" stroke-linejoin="round" stroke-miterlimit="10" fill="none"/></g><g><path d="M1462 714.023 1472.05 420 1478.05 448.015 1483.05 487.016 1488.05 526.017 1493.05 560.018 1499.05 591.019 1504.05 622.02 1509.05 649.021 1515.05 674.022 1520.05 695.023 1525.05 713.023 1531.05 731.024 1536.05 746.024 1541.05 760.025 1547.05 772.025 1552.05 784.026 1557.05 795.026 1563.05 805.026 1568.05 815.027 1573.05 823.027 1578.05 831.027 1584.05 839.028 1589.05 845.028 1594.05 852.028 1600.05 858.028 1605.05 863.028 1610.05 869.029 1616.05 874.029 1621.05 878.029 1626.05 883.029 1632.05 887.029 1637.05 891.029 1642.05 895.029 1648.05 898.029 1653.05 902.03 1658.05 905.03 1663.05 908.03 1669.05 911.03 1674.05 914.03 1679.06 917.03 1685.06 920.03 1690.06 922.03 1695.06 924.03 1701.06 926.03 1706.06 929.031 1711.06 931.031 1717.06 933.031 1722.06 935.031 1727.06 937.031 1733.06 939.031 1738.06 940.031 1743.06 942.031 1748.06 943.031 1754.06 945.031 1759.06 947.031 1764.06 948.031 1770.06 950.031 1775.06 952.031 1780.06 953.031 1786.06 954.031 1791.06 956.031 1796.06 957.031 1802.06 958.031 1807.06 959.031 1812.06 960.031 1818.06 961.031 1823.06 963.032 1828.06 964.032 1833.06 965.032 1839.06 966.032 1844.06 967.032 1849.06 968.032 1855.06 969.032 1860.06 970.032 1865.06 971.032 1871.06 972.032 1876.06 972.032 1881.06 973.032 1887.06 973.032 1892.06 973.032 1897.06 974.032 1903.06 974.032 1908.06 975.032 1913.06 976.032 1918.06 976.032 1924.06 976.032 1929.06 977.032 1934.06 977.032 1940.06 978.032 1945.06 979.032 1950.06 979.032 1956.06 979.032 1961.06 980.032 1966.06 981.032 1972.06 981.032 1977.06 981.032 1982.07 982.032 1988.07 982.032 1993.07 983.032 1998.07 984.032 2003.07 985.032 2009.07 985.032 2014.07 985.032 2019.07 985.032 2025.07 986.032 2030.07 987.032 2035.07 987.032 2041.07 988.032 2046.07 988.032 2051.07 989.032 2057.07 989.032 2062.07 989.032 2067.07 990.032 2072.07 990.032 2078.07 991.033 2083.07 991.033 2088.07 991.033 2094.07 992.033 2099.07 992.033 2104.07 992.033 2110.07 992.033 2115.07 993.033 2120.07 994.033 2126.07 994.033 2131.07 994.033 2136.07 995.033 2142.07 995.033 2147.07 995.033 2152.07 995.033 2157.07 995.033 2163.07 995.033 2168.07 995.033 2173.07 996.033 2179.07 996.033 2184.07 996.033 2189.07 996.033 2195.07 996.033 2200.07 997.033 2205.07 997.033 2211.07 997.033 2216.07 997.033 2221.07 997.033 2227.07 998.033 2232.07 997.033 2237.07 998.033 2242.07 998.033 2248.07 998.033 2253.07 998.033 2258.07 999.033 2264 999" stroke="#156082" stroke-width="10.3125" stroke-linecap="round" stroke-linejoin="round" stroke-miterlimit="10" fill="none"/></g><g><path d="M1462 1004.03 1472.05 984 1478.05 987.032 1483.05 989.032 1488.05 991.033 1493.05 993.033 1499.05 995.033 1504.05 996.033 1509.05 997.033 1515.05 998.033 1520.05 999.033 1525.05 1000.03 1531.05 1000.03 1536.05 1001.03 1541.05 1002.03 1547.05 1003.03 1552.05 1004.03 1557.05 1004.03 1563.05 1005.03 1568.05 1006.03 1573.05 1006.03 1578.05 1007.03 1584.05 1007.03 1589.05 1007.03 1594.05 1008.03 1600.05 1008.03 1605.05 1009.03 1610.05 1009.03 1616.05 1010.03 1621.05 1010.03 1626.05 1011.03 1632.05 1011.03 1637.05 1011.03 1642.05 1012.03 1648.05 1012.03 1653.05 1012.03 1658.05 1012.03 1663.05 1013.03 1669.05 1013.03 1674.05 1013.03 1679.06 1014.03 1685.06 1014.03 1690.06 1014.03 1695.06 1015.03 1701.06 1015.03 1706.06 1015.03 1711.06 1015.03 1717.06 1015.03 1722.06 1015.03 1727.06 1016.03 1733.06 1016.03 1738.06 1016.03 1743.06 1017.03 1748.06 1017.03 1754.06 1017.03 1759.06 1017.03 1764.06 1017.03 1770.06 1018.03 1775.06 1017.03 1780.06 1018.03 1786.06 1018.03 1791.06 1018.03 1796.06 1018.03 1802.06 1018.03 1807.06 1019.03 1812.06 1019.03 1818.06 1019.03 1823.06 1019.03 1828.06 1019.03 1833.06 1019.03 1839.06 1019.03 1844.06 1019.03 1849.06 1020.03 1855.06 1020.03 1860.06 1020.03 1865.06 1020.03 1871.06 1020.03 1876.06 1021.03 1881.06 1021.03 1887.06 1021.03 1892.06 1021.03 1897.06 1021.03 1903.06 1021.03 1908.06 1021.03 1913.06 1021.03 1918.06 1021.03 1924.06 1021.03 1929.06 1021.03 1934.06 1022.03 1940.06 1022.03 1945.06 1022.03 1950.06 1022.03 1956.06 1022.03 1961.06 1022.03 1966.06 1022.03 1972.06 1022.03 1977.06 1022.03 1982.07 1022.03 1988.07 1022.03 1993.07 1023.03 1998.07 1023.03 2003.07 1023.03 2009.07 1023.03 2014.07 1023.03 2019.07 1023.03 2025.07 1023.03 2030.07 1023.03 2035.07 1023.03 2041.07 1023.03 2046.07 1023.03 2051.07 1023.03 2057.07 1023.03 2062.07 1024.03 2067.07 1024.03 2072.07 1024.03 2078.07 1024.03 2083.07 1024.03 2088.07 1024.03 2094.07 1024.03 2099.07 1024.03 2104.07 1024.03 2110.07 1024.03 2115.07 1024.03 2120.07 1024.03 2126.07 1024.03 2131.07 1024.03 2136.07 1024.03 2142.07 1024.03 2147.07 1024.03 2152.07 1024.03 2157.07 1024.03 2163.07 1024.03 2168.07 1024.03 2173.07 1024.03 2179.07 1025.03 2184.07 1025.03 2189.07 1025.03 2195.07 1025.03 2200.07 1025.03 2205.07 1025.03 2211.07 1025.03 2216.07 1025.03 2221.07 1025.03 2227.07 1025.03 2232.07 1025.03 2237.07 1025.03 2242.07 1025.03 2248.07 1025.03 2253.07 1025.03 2258.07 1025.03 2264 1025" stroke="#83CBEB" stroke-width="10.3125" stroke-linecap="round" stroke-linejoin="round" stroke-miterlimit="10" fill="none"/></g><g><text font-family="Arial,Arial_MSFontService,sans-serif" font-weight="400" font-size="41" transform="matrix(1 0 0 1 1366.16 1051)">0.0</text></g><g><text font-family="Arial,Arial_MSFontService,sans-serif" font-weight="400" font-size="41" transform="matrix(1 0 0 1 1366.16 919)">0.5</text></g><g><text font-family="Arial,Arial_MSFontService,sans-serif" font-weight="400" font-size="41" transform="matrix(1 0 0 1 1366.16 788)">1.0</text></g><g><text font-family="Arial,Arial_MSFontService,sans-serif" font-weight="400" font-size="41" transform="matrix(1 0 0 1 1366.16 656)">1.5</text></g><g><text font-family="Arial,Arial_MSFontService,sans-serif" font-weight="400" font-size="41" transform="matrix(1 0 0 1 1366.16 525)">2.0</text></g><g><text font-family="Arial,Arial_MSFontService,sans-serif" font-weight="400" font-size="41" transform="matrix(1 0 0 1 1366.16 394)">2.5</text></g><g><text font-family="Arial,Arial_MSFontService,sans-serif" font-weight="400" font-size="41" transform="matrix(1 0 0 1 1450.16 1100)">0</text></g><g><text font-family="Arial,Arial_MSFontService,sans-serif" font-weight="400" font-size="41" transform="matrix(1 0 0 1 1598.06 1100)">30</text></g><g><text font-family="Arial,Arial_MSFontService,sans-serif" font-weight="400" font-size="41" transform="matrix(1 0 0 1 1757.44 1100)">60</text></g><g><text font-family="Arial,Arial_MSFontService,sans-serif" font-weight="400" font-size="41" transform="matrix(1 0 0 1 1916.81 1100)">90</text></g><g><text font-family="Arial,Arial_MSFontService,sans-serif" font-weight="400" font-size="41" transform="matrix(1 0 0 1 2064.72 1100)">120</text></g><g><text font-family="Arial,Arial_MSFontService,sans-serif" font-weight="400" font-size="41" transform="matrix(1 0 0 1 2224.1 1100)">150</text></g><g clip-path="url(#clip1)"><text font-family="Arial,Arial_MSFontService,sans-serif" font-weight="400" font-size="46" transform="matrix(6.12323e-17 -1 1 6.12323e-17 1345.35 621)">Thousands</text></g><g><text font-family="Arial,Arial_MSFontService,sans-serif" font-weight="400" font-size="46" transform="matrix(1 0 0 1 1699.29 1154)">month of production</text></g><g><g><text fill="#095979" font-family="Arial,Arial_MSFontService,sans-serif" font-weight="400" font-size="46" transform="matrix(1 0 0 1 1660.15 872)">horizontal wells</text></g></g><g><text fill="#46B1E1" font-family="Arial,Arial_MSFontService,sans-serif" font-weight="400" font-size="46" transform="matrix(1 0 0 1 1477.28 972)">vertical wells</text></g><g><g clip-path="url(#clip2)"><g clip-path="url(#clip3)"><g clip-path="url(#clip4)"><g><path d="M140.471 95.6736C140.471 77.4348 130.871 73.915 122.712 73.2751 109.113 72.3151 99.0334 80.6346 99.0334 80.6346L106.553 88.3141C114.552 81.9145 127.831 83.1944 128.951 91.5139 128.951 91.5139 117.272 94.2337 114.552 94.7136 106.393 96.4735 100.953 97.1135 96.7935 103.193 93.1138 109.113 94.0737 117.912 99.5133 122.872 107.033 129.591 122.712 129.591 130.551 120.472 130.551 120.472 131.511 125.592 132.151 127.191L143.99 127.191C139.031 115.672 140.311 103.353 140.471 95.6736ZM128.951 103.833C128.311 109.113 124.632 115.672 114.872 116.952 108.793 117.752 103.033 113.752 106.073 108.313 107.033 106.553 109.113 105.273 111.992 104.793 113.752 104.473 115.672 104.313 117.752 103.993 122.232 103.353 126.392 102.393 128.951 101.433 128.951 101.433 128.951 103.193 128.951 103.833Z" fill="#333333" transform="matrix(1.00625 0 0 1 2178.21 180.354)"/><path d="M63.9957 100.633C64.1557 84.9543 55.5163 73.7551 39.8373 73.915 24.4784 73.7551 15.199 85.5943 15.359 100.793 15.359 108.953 17.5988 115.352 22.2385 120.312 27.9981 126.871 38.8774 128.951 47.8368 126.711 54.2364 125.112 59.196 120.792 62.7158 115.352L52.7965 109.913C45.437 122.232 28.3181 118.072 27.6781 103.513L63.9957 103.513ZM28.4781 93.9137C31.1979 81.7545 49.4367 81.1146 51.9965 93.9137Z" fill="#333333" transform="matrix(1.00625 0 0 1 2178.21 180.354)"/><path d="M132.951 39.6773C112.472 28.1581 79.5147 29.598 18.3988 63.6757 15.039 65.5956 15.039 64.4757 15.8389 63.5157 20.1586 58.3961 74.555 13.7591 122.872 17.9188 136.951 19.1987 162.069 27.3582 166.229 54.5563 170.389 81.7545 158.069 97.7534 154.39 98.5534 159.349 79.6747 156.15 52.7965 132.951 39.6773Z" fill="#0096D7" transform="matrix(1.00625 0 0 1 2178.21 180.354)"/><path d="M73.5951 79.0347 73.5951 127.031 85.2743 127.031 85.2743 79.0347Z" fill="#333333" transform="matrix(1.00625 0 0 1 2178.21 180.354)"/><path d="M87.0342 64.1557C87.0342 68.3086 83.6676 71.6752 79.5147 71.6752 75.3618 71.6752 71.9952 68.3086 71.9952 64.1557 71.9952 60.0028 75.3618 56.6362 79.5147 56.6362 83.6676 56.6362 87.0342 60.0028 87.0342 64.1557Z" fill="#333333" transform="matrix(1.00625 0 0 1 2178.21 180.354)"/></g></g></g></g></g><rect x="369" y="189" width="994" height="990" fill="#FFFFFF"/><g><path d="M491.5 879.529 1318.5 879.529M491.5 712.524 1318.5 712.524M491.5 545.518 1318.5 545.518M491.5 378.5 1318.5 378.5" stroke="#D9D9D9" stroke-width="3.4375" stroke-linejoin="round" stroke-miterlimit="10" fill="none"/></g><g><path d="M491.5 1046.5 1318.5 1046.5" stroke="#000000" stroke-width="3.4375" stroke-linejoin="round" stroke-miterlimit="10" fill="none" fill-rule="evenodd"/></g><g><path d="M491.5 1046.5 491.5 1055.53M524.517 1046.5 524.517 1055.53M557.518 1046.5 557.518 1055.53M589.52 1046.5 589.52 1055.53M622.521 1046.5 622.521 1055.53M654.522 1046.5 654.522 1055.53M687.523 1046.5 687.523 1055.53M720.524 1046.5 720.524 1055.53M752.525 1046.5 752.525 1055.53M785.526 1046.5 785.526 1055.53M817.527 1046.5 817.527 1055.53M850.528 1046.5 850.528 1055.53M883.529 1046.5 883.529 1055.53M915.53 1046.5 915.53 1055.53M948.531 1046.5 948.531 1055.53M981.532 1046.5 981.532 1055.53M1013.53 1046.5 1013.53 1055.53M1046.53 1046.5 1046.53 1055.53M1078.54 1046.5 1078.54 1055.53M1111.54 1046.5 1111.54 1055.53M1144.54 1046.5 1144.54 1055.53M1176.54 1046.5 1176.54 1055.53M1209.54 1046.5 1209.54 1055.53M1242.54 1046.5 1242.54 1055.53M1274.54 1046.5 1274.54 1055.53M1307.5 1046.5 1307.5 1055.53M491.5 1046.5 491.5 1058.5M654.522 1046.5 654.522 1058.5M817.527 1046.5 817.527 1058.5M981.532 1046.5 981.532 1058.5M1144.54 1046.5 1144.54 1058.5M1307.5 1046.5 1307.5 1058.5" stroke="#000000" stroke-width="3.4375" stroke-linejoin="round" stroke-miterlimit="10" fill="none"/></g><g><path d="M495 734.024 505.017 450 511.017 527.017 516.017 600.02 522.017 661.022 527.017 709.023 533.017 746.024 538.018 777.026 543.018 802.026 549.018 824.027 554.018 842.028 560.018 858.028 565.019 871.029 571.019 882.029 576.019 892.029 582.019 901.03 587.019 909.03 592.019 916.03 598.02 923.03 603.02 929.031 609.02 934.031 614.02 939.031 620.02 944.031 625.021 948.031 630.021 952.031 636.021 956.031 641.021 959.031 647.021 962.032 652.021 965.032 658.022 968.032 663.022 971.032 669.022 973.032 674.022 975.032 679.022 978.032 685.022 980.032 690.023 982.032 696.023 983.032 701.023 985.032 707.023 987.032 712.023 988.032 717.024 990.032 723.024 992.033 728.024 993.033 734.024 994.033 739.024 996.033 745.024 997.033 750.025 998.033 755.025 999.033 761.025 1000.03 766.025 1001.03 772.025 1003.03 777.026 1003.03 783.026 1004.03 788.026 1005.03 794.026 1006.03 799.026 1007.03 804.026 1008.03 810.027 1009.03 815.027 1009.03 821.027 1010.03 826.027 1011.03 832.027 1011.03 837.027 1012.03 842.028 1013.03 848.028 1013.03 853.028 1014.03 859.028 1015.03 864.028 1015.03 870.029 1016.03 875.029 1016.03 881.029 1017.03 886.029 1017.03 891.029 1018.03 897.029 1018.03 902.03 1019.03 908.03 1020.03 913.03 1020.03 919.03 1020.03 924.03 1021.03 929.031 1021.03 935.031 1022.03 940.031 1022.03 946.031 1023.03 951.031 1023.03 957.031 1024.03 962.032 1024.03 967.032 1024.03 973.032 1024.03 978.032 1025.03 984.032 1025.03 989.032 1025.03 995.033 1025.03 1000.03 1026.03 1006.03 1026.03 1011.03 1026.03 1016.03 1027.03 1022.03 1027.03 1027.03 1027.03 1033.03 1027.03 1038.03 1027.03 1044.03 1028.03 1049.03 1028.03 1054.03 1028.03 1060.03 1028.03 1065.03 1028.03 1071.04 1028.03 1076.04 1028.03 1082.04 1029.03 1087.04 1029.03 1093.04 1029.03 1098.04 1029.03 1103.04 1029.03 1109.04 1029.03 1114.04 1030.03 1120.04 1030.03 1125.04 1030.03 1131.04 1030.03 1136.04 1031.03 1141.04 1031.03 1147.04 1031.03 1152.04 1031.03 1158.04 1032.03 1163.04 1032.03 1169.04 1032.03 1174.04 1032.03 1179.04 1032.03 1185.04 1032.03 1190.04 1033.03 1196.04 1033.03 1201.04 1033.03 1207.04 1033.03 1212.04 1033.03 1218.04 1033.03 1223.04 1033.03 1228.04 1033.03 1234.04 1033.03 1239.04 1033.03 1245.04 1034.03 1250.04 1033.03 1256.04 1034.03 1261.04 1034.03 1266.04 1034.03 1272.04 1034.03 1277.04 1034.03 1283.04 1034.03 1288.04 1034.03 1294.04 1034.03 1299.04 1034.03 1305.04 1035 1310.04 1034.03 1315 1034.03" stroke="#87370F" stroke-width="10.3125" stroke-linecap="round" stroke-linejoin="round" stroke-miterlimit="10" fill="none"/></g><g><path d="M495 1013.03 505.017 1004 511.017 1007.03 516.017 1009.03 522.017 1010.03 527.017 1012.03 533.017 1013.03 538.018 1014.03 543.018 1016.03 549.018 1017.03 554.018 1018.03 560.018 1019.03 565.019 1020.03 571.019 1020.03 576.019 1021.03 582.019 1022.03 587.019 1022.03 592.019 1023.03 598.02 1024.03 603.02 1024.03 609.02 1025.03 614.02 1025.03 620.02 1026.03 625.021 1026.03 630.021 1026.03 636.021 1027.03 641.021 1027.03 647.021 1027.03 652.021 1028.03 658.022 1028.03 663.022 1029.03 669.022 1029.03 674.022 1029.03 679.022 1029.03 685.022 1030.03 690.023 1030.03 696.023 1030.03 701.023 1030.03 707.023 1030.03 712.023 1031.03 717.024 1031.03 723.024 1031.03 728.024 1031.03 734.024 1031.03 739.024 1031.03 745.024 1032.03 750.025 1032.03 755.025 1032.03 761.025 1032.03 766.025 1032.03 772.025 1032.03 777.026 1032.03 783.026 1033.03 788.026 1033.03 794.026 1033.03 799.026 1033.03 804.026 1033.03 810.027 1033.03 815.027 1033.03 821.027 1034.03 826.027 1034.03 832.027 1034.03 837.027 1034.03 842.028 1034.03 848.028 1034.03 853.028 1034.03 859.028 1034.03 864.028 1034.03 870.029 1034.03 875.029 1034.03 881.029 1034.03 886.029 1035.03 891.029 1034.03 897.029 1034.03 902.03 1035.03 908.03 1035.03 913.03 1035.03 919.03 1035.03 924.03 1035.03 929.031 1035.03 935.031 1035.03 940.031 1035.03 946.031 1035.03 951.031 1035.03 957.031 1035.03 962.032 1035.03 967.032 1035.03 973.032 1035.03 978.032 1035.03 984.032 1035.03 989.032 1036.03 995.033 1036.03 1000.03 1036.03 1006.03 1036.03 1011.03 1036.03 1016.03 1036.03 1022.03 1036.03 1027.03 1036.03 1033.03 1036.03 1038.03 1036.03 1044.03 1036.03 1049.03 1036.03 1054.03 1036.03 1060.03 1036.03 1065.03 1036.03 1071.04 1036.03 1076.04 1036.03 1082.04 1036.03 1087.04 1036.03 1093.04 1036.03 1098.04 1036.03 1103.04 1036.03 1109.04 1036.03 1114.04 1037.03 1120.04 1037.03 1125.04 1037.03 1131.04 1037.03 1136.04 1037.03 1141.04 1037.03 1147.04 1037.03 1152.04 1037.03 1158.04 1037.03 1163.04 1037.03 1169.04 1037.03 1174.04 1037.03 1179.04 1037.03 1185.04 1037.03 1190.04 1037.03 1196.04 1037.03 1201.04 1037.03 1207.04 1037.03 1212.04 1037.03 1218.04 1037.03 1223.04 1037.03 1228.04 1037.03 1234.04 1037.03 1239.04 1037.03 1245.04 1037.03 1250.04 1037.03 1256.04 1037.03 1261.04 1037.03 1266.04 1037.03 1272.04 1037.03 1277.04 1037.03 1283.04 1037.03 1288.04 1037.03 1294.04 1037.03 1299.04 1037.03 1305.04 1037.03 1310.04 1037.03 1315 1037" stroke="#E86828" stroke-width="10.3125" stroke-linecap="round" stroke-linejoin="round" stroke-miterlimit="10" fill="none"/></g><g><text font-family="Arial,Arial_MSFontService,sans-serif" font-weight="400" font-size="41" transform="matrix(1 0 0 1 433.428 1059)">0</text></g><g><text font-family="Arial,Arial_MSFontService,sans-serif" font-weight="400" font-size="41" transform="matrix(1 0 0 1 387.549 892)">100</text></g><g><text font-family="Arial,Arial_MSFontService,sans-serif" font-weight="400" font-size="41" transform="matrix(1 0 0 1 387.549 725)">200</text></g><g><text font-family="Arial,Arial_MSFontService,sans-serif" font-weight="400" font-size="41" transform="matrix(1 0 0 1 387.549 558)">300</text></g><g><text font-family="Arial,Arial_MSFontService,sans-serif" font-weight="400" font-size="41" transform="matrix(1 0 0 1 387.549 391)">400</text></g><g><text font-family="Arial,Arial_MSFontService,sans-serif" font-weight="400" font-size="41" transform="matrix(1 0 0 1 483.092 1108)">0</text></g><g><text font-family="Arial,Arial_MSFontService,sans-serif" font-weight="400" font-size="41" transform="matrix(1 0 0 1 634.71 1108)">30</text></g><g><text font-family="Arial,Arial_MSFontService,sans-serif" font-weight="400" font-size="41" transform="matrix(1 0 0 1 797.798 1108)">60</text></g><g><text font-family="Arial,Arial_MSFontService,sans-serif" font-weight="400" font-size="41" transform="matrix(1 0 0 1 960.886 1108)">90</text></g><g><text font-family="Arial,Arial_MSFontService,sans-serif" font-weight="400" font-size="41" transform="matrix(1 0 0 1 1112.5 1108)">120</text></g><g><text font-family="Arial,Arial_MSFontService,sans-serif" font-weight="400" font-size="41" transform="matrix(1 0 0 1 1275.59 1108)">150</text></g><g><text font-family="Arial,Arial_MSFontService,sans-serif" font-weight="400" font-size="46" transform="matrix(1 0 0 1 733.733 1163)">month of production</text></g><g><text fill="#87370F" font-family="Arial,Arial_MSFontService,sans-serif" font-weight="400" font-size="46" transform="matrix(1 0 0 1 565.277 858)">horizontal wells</text></g><g><text fill="#E86828" font-family="Arial,Arial_MSFontService,sans-serif" font-weight="400" font-size="46" transform="matrix(1 0 0 1 418.801 938)">vertical </text></g><g><text fill="#E86828" font-family="Arial,Arial_MSFontService,sans-serif" font-weight="400" font-size="46" transform="matrix(1 0 0 1 462.114 991)">wells</text></g><text font-family="Arial,Arial_MSFontService,sans-serif" font-weight="700" font-size="46" transform="matrix(1 0 0 1 388.351 238)">Average oil and natural gas production from horizontal wells and vertical wells</text><text font-family="Arial,Arial_MSFontService,sans-serif" font-weight="400" font-size="46" transform="matrix(1 0 0 1 388.351 291)">crude oil</text><text font-family="Arial,Arial_MSFontService,sans-serif" font-weight="400" font-size="46" transform="matrix(1 0 0 1 1366.89 291)">natural gas</text><text font-family="Arial,Arial_MSFontService,sans-serif" font-weight="400" font-size="46" transform="matrix(1 0 0 1 388.351 343)">barrels per day</text><text font-family="Arial,Arial_MSFontService,sans-serif" font-weight="400" font-size="46" transform="matrix(1 0 0 1 1366.89 343)">million cubic feet per day</text></g></svg>