<?xml version="1.0" encoding="UTF-8"?>
<!-- Generator: Adobe Illustrator 28.0.0, SVG Export Plug-In . SVG Version: 6.00 Build 0)  -->
<svg version="1.1" x="0px" y="0px" viewBox="0 0 269.291 141.732" enable-background="new 0 0 269.291 141.732" xml:space="preserve" xmlns="http://www.w3.org/2000/svg" xmlns:xlink="http://www.w3.org/1999/xlink">
<g id="Background">
	<rect fill="#FFFFFF" width="269.291" height="141.732"/>
</g>
<g id="Graph">
	<g>
		<path fill="#0A0A0A" d="M0.77,5.996V1.459h1.29v4.467c0,1.01,0.479,1.589,1.489,1.589c1.01,0,1.489-0.58,1.489-1.589V1.459h1.29     v4.537c0,1.689-1.02,2.689-2.779,2.689C1.789,8.685,0.77,7.686,0.77,5.996z"/>
		<path fill="#0A0A0A" d="M7.43,6.306h1.339c0.01,0.77,0.66,1.27,1.539,1.27c0.88,0,1.509-0.34,1.509-1.06     c0-0.51-0.419-0.75-0.909-0.83l-1.359-0.22C8.379,5.277,7.62,4.657,7.62,3.508c0-1.279,1.299-2.189,2.699-2.189     c1.469,0,2.668,0.89,2.688,2.199h-1.319c-0.03-0.68-0.62-1.099-1.389-1.099c-0.72,0-1.389,0.33-1.389,1     c0,0.43,0.35,0.709,0.859,0.79l1.319,0.209c1.159,0.18,2.029,0.84,2.029,2.029c0,1.409-1.269,2.239-2.828,2.239     C8.679,8.685,7.43,7.765,7.43,6.306z"/>
		<path fill="#0A0A0A" d="M16.739,7.896c-0.42-0.47-0.66-1.04-0.66-1.949s0.24-1.479,0.66-1.949c0.37-0.42,0.989-0.79,1.869-0.79     s1.5,0.37,1.869,0.79c0.42,0.47,0.66,1.039,0.66,1.949s-0.24,1.479-0.66,1.949c-0.37,0.419-0.99,0.79-1.869,0.79     S17.109,8.315,16.739,7.896z M19.458,7.266c0.33-0.33,0.41-0.81,0.41-1.319s-0.08-0.989-0.41-1.319     c-0.18-0.18-0.459-0.33-0.85-0.33c-0.39,0-0.669,0.15-0.85,0.33c-0.33,0.33-0.41,0.81-0.41,1.319s0.08,0.99,0.41,1.319     c0.18,0.18,0.46,0.33,0.85,0.33C18.998,7.595,19.278,7.445,19.458,7.266z"/>
		<path fill="#0A0A0A" d="M23.619,1.319v1.29h-1.35v-1.29H23.619z M23.579,3.348v5.197h-1.27V3.348H23.579z"/>
		<path fill="#0A0A0A" d="M25.009,7.206V1.309h1.259v5.687c0,0.3,0.07,0.5,0.5,0.5c0.11,0,0.14-0.01,0.21-0.01v1.05     c-0.23,0.05-0.32,0.07-0.55,0.07C25.579,8.605,25.009,8.195,25.009,7.206z"/>
		<path fill="#0A0A0A" d="M30.509,7.896c-0.42-0.47-0.66-1.04-0.66-1.949s0.24-1.479,0.66-1.949c0.37-0.42,0.989-0.79,1.869-0.79     s1.5,0.37,1.869,0.79c0.42,0.47,0.66,1.039,0.66,1.949s-0.24,1.479-0.66,1.949c-0.37,0.419-0.99,0.79-1.869,0.79     S30.879,8.315,30.509,7.896z M33.228,7.266c0.33-0.33,0.41-0.81,0.41-1.319s-0.08-0.989-0.41-1.319     c-0.18-0.18-0.46-0.33-0.85-0.33s-0.669,0.15-0.85,0.33c-0.33,0.33-0.41,0.81-0.41,1.319s0.08,0.99,0.41,1.319     c0.18,0.18,0.46,0.33,0.85,0.33S33.048,7.445,33.228,7.266z"/>
		<path fill="#0A0A0A" d="M36.029,6.826V3.348h1.249v3.188c0,0.609,0.29,1,0.9,1c0.719,0,1.019-0.59,1.019-1.339V3.348h1.25v5.197     h-1.069l-0.06-0.78c-0.22,0.59-0.83,0.92-1.489,0.92C36.789,8.685,36.029,7.935,36.029,6.826z"/>
		<path fill="#0A0A0A" d="M42.359,7.086V4.377H41.37v-1.03h0.989V2.028l1.25-0.31v1.629h1.259v1.03h-1.259v2.528     c0,0.4,0.26,0.57,0.66,0.57c0.26,0,0.45-0.03,0.609-0.07v1.079c-0.27,0.1-0.569,0.13-0.869,0.13     C42.958,8.615,42.359,8.085,42.359,7.086z"/>
		<path fill="#0A0A0A" d="M45.949,3.348h1.089l0.07,0.65c0.29-0.53,0.919-0.79,1.559-0.79c0.6,0,1.079,0.19,1.429,0.51     c0.56,0.509,0.81,1.349,0.81,2.219c0,0.929-0.28,1.759-0.85,2.259c-0.35,0.31-0.83,0.49-1.419,0.49c-0.75,0-1.189-0.33-1.439-0.64     v2.658h-1.25V3.348z M49.237,7.256c0.28-0.35,0.4-0.79,0.4-1.319c0-0.48-0.08-0.939-0.37-1.279c-0.21-0.24-0.46-0.4-0.859-0.4     c-0.38,0-0.63,0.14-0.85,0.38c-0.29,0.31-0.39,0.759-0.39,1.229c0,0.56,0.1,1.06,0.41,1.399c0.19,0.21,0.459,0.36,0.83,0.36     C48.787,7.625,49.057,7.476,49.237,7.256z"/>
		<path fill="#0A0A0A" d="M52.029,6.826V3.348h1.249v3.188c0,0.609,0.29,1,0.9,1c0.719,0,1.019-0.59,1.019-1.339V3.348h1.25v5.197     h-1.069l-0.06-0.78c-0.22,0.59-0.83,0.92-1.489,0.92C52.788,8.685,52.029,7.935,52.029,6.826z"/>
		<path fill="#0A0A0A" d="M58.358,7.086V4.377h-0.989v-1.03h0.989V2.028l1.25-0.31v1.629h1.259v1.03h-1.259v2.528     c0,0.4,0.26,0.57,0.66,0.57c0.26,0,0.45-0.03,0.609-0.07v1.079c-0.27,0.1-0.569,0.13-0.869,0.13     C58.958,8.615,58.358,8.085,58.358,7.086z"/>
		<path fill="#0A0A0A" d="M63.709,6.876h1.199c0,0.58,0.46,0.85,1.08,0.85c0.52,0,1.029-0.2,1.029-0.69c0-0.28-0.19-0.49-0.54-0.54     l-1.25-0.17c-0.859-0.12-1.359-0.72-1.359-1.359c0-1.059,0.95-1.759,2.119-1.759c1.129,0,2.079,0.68,2.079,1.679h-1.189     c0-0.479-0.38-0.739-0.89-0.739c-0.54,0-0.939,0.22-0.939,0.64c0,0.37,0.32,0.49,0.6,0.53l1.109,0.15     c0.819,0.11,1.419,0.66,1.419,1.479c0,1.159-1.039,1.739-2.229,1.739C64.688,8.685,63.709,7.975,63.709,6.876z"/>
		<path fill="#0A0A0A" d="M69.668,8.045c-0.53-0.5-0.81-1.25-0.81-2.099c0-0.83,0.28-1.579,0.8-2.079     c0.399-0.39,0.939-0.66,1.659-0.66c1.5,0,2.399,1.049,2.399,2.599c0,0.2-0.01,0.379-0.03,0.5h-3.578     c0,0.709,0.459,1.389,1.249,1.389c0.57,0,0.959-0.29,1.05-0.7h1.169c-0.15,1.02-1.079,1.689-2.199,1.689     C70.638,8.685,70.088,8.435,69.668,8.045z M72.467,5.396c0-0.77-0.45-1.199-1.119-1.199c-0.68,0-1.179,0.49-1.229,1.199H72.467z"/>
		<path fill="#0A0A0A" d="M75.368,8.045c-0.53-0.5-0.81-1.25-0.81-2.099c0-0.83,0.28-1.579,0.8-2.079     c0.399-0.39,0.939-0.66,1.659-0.66c1.5,0,2.399,1.049,2.399,2.599c0,0.2-0.01,0.379-0.03,0.5h-3.578     c0,0.709,0.459,1.389,1.249,1.389c0.57,0,0.959-0.29,1.05-0.7h1.169c-0.15,1.02-1.079,1.689-2.199,1.689     C76.338,8.685,75.788,8.435,75.368,8.045z M78.167,5.396c0-0.77-0.45-1.199-1.119-1.199c-0.68,0-1.179,0.49-1.229,1.199H78.167z"/>
		<path fill="#0A0A0A" d="M80.559,3.348h1.089l0.06,0.68c0.31-0.56,0.95-0.819,1.549-0.819c1.109,0,1.789,0.77,1.789,1.859v3.478     h-1.25V5.356c0-0.609-0.29-0.989-0.87-0.989c-0.779,0-1.119,0.689-1.119,1.499v2.679h-1.25V3.348z"/>
		<path fill="#0A0A0A" d="M89.058,7.086V4.377h-0.989v-1.03h0.989V2.028l1.25-0.31v1.629h1.259v1.03h-1.259v2.528     c0,0.4,0.26,0.57,0.66,0.57c0.26,0,0.45-0.03,0.609-0.07v1.079c-0.27,0.1-0.569,0.13-0.869,0.13     C89.658,8.615,89.058,8.085,89.058,7.086z"/>
		<path fill="#0A0A0A" d="M92.938,7.896c-0.42-0.47-0.66-1.04-0.66-1.949s0.24-1.479,0.66-1.949c0.37-0.42,0.989-0.79,1.869-0.79     s1.5,0.37,1.869,0.79c0.42,0.47,0.66,1.039,0.66,1.949s-0.24,1.479-0.66,1.949c-0.37,0.419-0.99,0.79-1.869,0.79     S93.308,8.315,92.938,7.896z M95.657,7.266c0.33-0.33,0.41-0.81,0.41-1.319s-0.08-0.989-0.41-1.319     c-0.18-0.18-0.459-0.33-0.85-0.33c-0.39,0-0.669,0.15-0.85,0.33c-0.33,0.33-0.41,0.81-0.41,1.319s0.08,0.99,0.41,1.319     c0.18,0.18,0.46,0.33,0.85,0.33C95.197,7.595,95.477,7.445,95.657,7.266z"/>
		<path fill="#0A0A0A" d="M101.258,8.175c-0.6-0.52-0.889-1.37-0.889-2.219c0-0.88,0.27-1.669,0.779-2.159     c0.39-0.379,0.919-0.589,1.559-0.589c0.75,0,1.189,0.33,1.37,0.64V1.309h1.249v7.236h-1.089l-0.07-0.74     c-0.2,0.59-0.85,0.88-1.489,0.88C102.107,8.685,101.618,8.485,101.258,8.175z M103.727,7.275c0.3-0.33,0.41-0.799,0.41-1.339     c0-0.52-0.1-0.97-0.39-1.31c-0.2-0.24-0.479-0.37-0.859-0.37c-0.39,0-0.67,0.14-0.87,0.39c-0.28,0.35-0.38,0.79-0.38,1.29     c0,0.5,0.11,1,0.41,1.329c0.2,0.22,0.47,0.36,0.84,0.36C103.257,7.625,103.537,7.485,103.727,7.275z"/>
		<path fill="#0A0A0A" d="M107.298,8.045c-0.53-0.5-0.81-1.25-0.81-2.099c0-0.83,0.28-1.579,0.8-2.079     c0.399-0.39,0.939-0.66,1.659-0.66c1.5,0,2.399,1.049,2.399,2.599c0,0.2-0.01,0.379-0.03,0.5h-3.578     c0,0.709,0.459,1.389,1.249,1.389c0.57,0,0.959-0.29,1.05-0.7h1.169c-0.15,1.02-1.079,1.689-2.199,1.689     C108.268,8.685,107.718,8.435,107.298,8.045z M110.096,5.396c0-0.77-0.45-1.199-1.119-1.199c-0.68,0-1.179,0.49-1.229,1.199     H110.096z"/>
		<path fill="#0A0A0A" d="M112.798,7.865c-0.4-0.49-0.6-1.159-0.6-1.919c0-0.759,0.2-1.439,0.609-1.919     c0.37-0.44,0.99-0.819,1.849-0.819c1.269,0,2.189,0.779,2.249,1.959h-1.209c-0.05-0.56-0.41-0.88-1.01-0.88     c-0.41,0-0.68,0.15-0.849,0.34c-0.31,0.34-0.37,0.83-0.37,1.319s0.06,0.979,0.37,1.31c0.18,0.189,0.439,0.35,0.849,0.35     c0.59,0,0.959-0.34,1.01-0.87h1.209c-0.06,1.16-1.019,1.949-2.249,1.949C113.798,8.685,113.158,8.315,112.798,7.865z"/>
		<path fill="#0A0A0A" d="M117.988,7.206V1.309h1.259v5.687c0,0.3,0.07,0.5,0.5,0.5c0.11,0,0.14-0.01,0.21-0.01v1.05     c-0.23,0.05-0.32,0.07-0.55,0.07C118.558,8.605,117.988,8.195,117.988,7.206z"/>
		<path fill="#0A0A0A" d="M122.277,1.319v1.29h-1.35v-1.29H122.277z M122.237,3.348v5.197h-1.27V3.348H122.237z"/>
		<path fill="#0A0A0A" d="M123.698,3.348h1.089l0.06,0.68c0.31-0.56,0.95-0.819,1.549-0.819c1.109,0,1.789,0.77,1.789,1.859v3.478     h-1.25V5.356c0-0.609-0.29-0.989-0.87-0.989c-0.779,0-1.119,0.689-1.119,1.499v2.679h-1.25V3.348z"/>
		<path fill="#0A0A0A" d="M130.107,8.045c-0.53-0.5-0.81-1.25-0.81-2.099c0-0.83,0.28-1.579,0.8-2.079     c0.399-0.39,0.939-0.66,1.659-0.66c1.499,0,2.398,1.049,2.398,2.599c0,0.2-0.01,0.379-0.03,0.5h-3.578     c0,0.709,0.459,1.389,1.25,1.389c0.569,0,0.959-0.29,1.049-0.7h1.17c-0.15,1.02-1.08,1.689-2.199,1.689     C131.077,8.685,130.527,8.435,130.107,8.045z M132.906,5.396c0-0.77-0.45-1.199-1.12-1.199c-0.679,0-1.179,0.49-1.229,1.199     H132.906z"/>
		<path fill="#0A0A0A" d="M138.607,7.805l-0.04,0.74h-1.119V1.309h1.249v2.539c0.23-0.31,0.72-0.64,1.47-0.64     c0.619,0,1.109,0.2,1.469,0.54c0.54,0.51,0.77,1.309,0.77,2.209c0,0.839-0.26,1.709-0.85,2.208c-0.359,0.31-0.819,0.52-1.409,0.52     C139.507,8.685,138.878,8.405,138.607,7.805z M140.727,7.266c0.3-0.33,0.41-0.83,0.41-1.329c0-0.5-0.101-0.939-0.38-1.29     c-0.2-0.25-0.47-0.4-0.87-0.4c-0.38,0-0.649,0.14-0.859,0.38c-0.29,0.34-0.39,0.79-0.39,1.31c0,0.54,0.1,1.019,0.41,1.339     c0.189,0.2,0.47,0.35,0.839,0.35C140.257,7.625,140.526,7.485,140.727,7.266z"/>
		<path fill="#0A0A0A" d="M143.139,10.664V9.634c0.16,0.05,0.34,0.09,0.55,0.09c0.34,0,0.699-0.08,0.919-0.62l0.271-0.66     l-2.079-5.097h1.379l1.38,3.698l1.259-3.698h1.279l-2.259,5.957c-0.489,1.289-1.189,1.489-1.949,1.489     C143.628,10.793,143.349,10.754,143.139,10.664z"/>
		<path fill="#0A0A0A" d="M150.567,7.396l2.689-2.619c0.479-0.459,0.619-0.889,0.619-1.239c0-0.609-0.399-0.949-0.989-0.949     c-0.79,0-1.09,0.54-1.09,1.229h-1.269c0-1.439,0.929-2.338,2.378-2.338c1.27,0,2.239,0.77,2.239,2.089     c0,0.709-0.39,1.359-0.92,1.869l-2.068,1.979h3.108v1.129h-4.698V7.396z"/>
		<path fill="#0A0A0A" d="M157.027,8.065c-0.749-0.689-0.869-1.839-0.869-2.978c0-1.14,0.12-2.299,0.869-2.988     c0.38-0.35,0.91-0.62,1.699-0.62c0.79,0,1.329,0.27,1.699,0.62c0.76,0.699,0.869,1.849,0.869,2.988     c0,1.139-0.109,2.279-0.869,2.978c-0.37,0.34-0.909,0.62-1.699,0.62C157.938,8.685,157.407,8.415,157.027,8.065z M159.616,7.146     c0.3-0.379,0.399-1.049,0.399-2.059c0-0.76-0.02-1.629-0.43-2.099c-0.189-0.22-0.47-0.35-0.859-0.35s-0.67,0.14-0.859,0.36     c-0.41,0.479-0.43,1.359-0.43,2.089c0,1.049,0.12,1.719,0.43,2.089c0.2,0.24,0.479,0.35,0.859,0.35     C159.127,7.525,159.416,7.406,159.616,7.146z"/>
		<path fill="#0A0A0A" d="M162.298,7.396l2.689-2.619c0.479-0.459,0.619-0.889,0.619-1.239c0-0.609-0.399-0.949-0.989-0.949     c-0.79,0-1.09,0.54-1.09,1.229h-1.269c0-1.439,0.929-2.338,2.378-2.338c1.27,0,2.239,0.77,2.239,2.089     c0,0.709-0.39,1.359-0.92,1.869l-2.068,1.979h3.108v1.129h-4.698V7.396z"/>
		<path fill="#0A0A0A" d="M171.326,2.738h-3.678v-1.12h5.027v1l-2.918,5.927h-1.369L171.326,2.738z"/>
	</g>
	<g>
		<path fill="#0A0A0A" d="M0.331,138.608h0.42c0.09,0.766,0.676,1.262,1.547,1.262c0.863,0,1.539-0.436,1.539-1.187     c0-0.503-0.398-0.924-1.036-1.014l-0.901-0.128c-0.811-0.112-1.381-0.532-1.381-1.336c0-0.863,0.871-1.494,1.817-1.494     c1.028,0,1.764,0.646,1.832,1.517H3.769c-0.105-0.751-0.706-1.141-1.449-1.141c-0.781,0-1.396,0.458-1.396,1.104     c0,0.615,0.443,0.855,1.014,0.938l0.916,0.127c0.818,0.113,1.389,0.676,1.389,1.412c0,0.945-0.833,1.576-1.944,1.576     C1.239,140.245,0.375,139.584,0.331,138.608z"/>
		<path fill="#0A0A0A" d="M5.648,139.802c-0.413-0.397-0.571-0.893-0.571-1.539c0-0.638,0.158-1.141,0.571-1.539     c0.27-0.255,0.646-0.442,1.126-0.442s0.856,0.188,1.126,0.442c0.413,0.398,0.57,0.901,0.57,1.539c0,0.646-0.158,1.142-0.57,1.539     c-0.271,0.256-0.646,0.443-1.126,0.443S5.918,140.058,5.648,139.802z M7.638,139.547c0.353-0.346,0.451-0.788,0.451-1.284     c0-0.487-0.098-0.938-0.451-1.283c-0.203-0.203-0.488-0.33-0.863-0.33s-0.661,0.127-0.863,0.33     c-0.353,0.345-0.45,0.796-0.45,1.283c0,0.496,0.097,0.938,0.45,1.284c0.203,0.203,0.488,0.33,0.863,0.33     S7.435,139.75,7.638,139.547z"/>
		<path fill="#0A0A0A" d="M9.571,138.812v-2.425h0.375v2.402c0,0.652,0.323,1.088,0.983,1.088c0.871,0,1.231-0.698,1.231-1.539     v-1.951h0.375v3.753h-0.345l-0.03-0.705c-0.21,0.495-0.69,0.811-1.254,0.811C10.059,140.245,9.571,139.652,9.571,138.812z"/>
		<path fill="#0A0A0A" d="M13.928,136.387h0.345l0.03,0.772c0.165-0.525,0.675-0.811,1.208-0.811c0.113,0,0.24,0,0.353,0.038v0.36     c-0.12-0.03-0.248-0.038-0.368-0.038c-0.871,0-1.193,0.721-1.193,1.554v1.877h-0.375V136.387z"/>
		<path fill="#0A0A0A" d="M16.891,139.795c-0.398-0.398-0.541-0.894-0.541-1.532c0-0.646,0.135-1.148,0.541-1.539     c0.27-0.263,0.653-0.442,1.133-0.442c0.796,0,1.404,0.488,1.494,1.269h-0.398c-0.083-0.518-0.511-0.9-1.096-0.9     c-0.368,0-0.661,0.12-0.863,0.322c-0.353,0.353-0.428,0.796-0.428,1.291c0,0.488,0.083,0.932,0.435,1.284     c0.203,0.203,0.496,0.323,0.863,0.323c0.586,0,1.014-0.384,1.096-0.901h0.391c-0.098,0.773-0.706,1.269-1.494,1.269     C17.544,140.237,17.161,140.064,16.891,139.795z"/>
		<path fill="#0A0A0A" d="M20.836,139.72c-0.308-0.36-0.496-0.871-0.496-1.441c0-0.474,0.075-0.938,0.375-1.337     c0.323-0.428,0.766-0.66,1.314-0.66c1.036,0,1.659,0.826,1.659,1.824c0,0.09,0,0.143-0.007,0.248h-2.965     c0.015,0.833,0.503,1.531,1.344,1.531c0.593,0,1.059-0.391,1.148-0.871h0.391c-0.113,0.706-0.789,1.231-1.539,1.231     C21.519,140.245,21.083,140.005,20.836,139.72z M23.298,138.016c-0.015-0.714-0.458-1.382-1.269-1.382     c-0.796,0-1.292,0.646-1.307,1.382H23.298z"/>
		<path fill="#0A0A0A" d="M25.336,136.387v0.675h-0.661v-0.675H25.336z M25.336,139.464v0.676h-0.661v-0.676H25.336z"/>
		<path fill="#0A0A0A" d="M27.705,138.608h0.421c0.09,0.766,0.675,1.262,1.546,1.262c0.863,0,1.539-0.436,1.539-1.187     c0-0.503-0.398-0.924-1.036-1.014l-0.901-0.128c-0.811-0.112-1.381-0.532-1.381-1.336c0-0.863,0.871-1.494,1.817-1.494     c1.028,0,1.764,0.646,1.832,1.517h-0.398c-0.105-0.751-0.706-1.141-1.449-1.141c-0.781,0-1.396,0.458-1.396,1.104     c0,0.615,0.443,0.855,1.014,0.938l0.916,0.127c0.818,0.113,1.389,0.676,1.389,1.412c0,0.945-0.833,1.576-1.944,1.576     C28.613,140.245,27.75,139.584,27.705,138.608z"/>
		<path fill="#0A0A0A" d="M32.475,138.834c0-0.594,0.292-1.036,0.795-1.359l0.338-0.218l-0.345-0.39     c-0.285-0.323-0.413-0.608-0.413-0.969c0-0.661,0.541-1.164,1.269-1.164c0.713,0,1.261,0.458,1.261,1.179     c0,0.519-0.278,0.841-0.683,1.097l-0.526,0.33l1.389,1.562c0.203-0.323,0.3-0.849,0.3-1.404v-0.322h0.931v0.338h-0.57     c-0.008,0.54-0.135,1.291-0.405,1.674l0.855,0.969h-0.48l-0.578-0.669c-0.36,0.451-0.938,0.767-1.591,0.767     C33.196,140.253,32.475,139.682,32.475,138.834z M35.35,139.201l-1.501-1.674l-0.338,0.218c-0.39,0.248-0.653,0.601-0.653,1.066     c0,0.623,0.556,1.065,1.164,1.065C34.607,139.877,35.058,139.592,35.35,139.201z M34.509,136.717     c0.285-0.181,0.503-0.466,0.503-0.804c0-0.495-0.375-0.833-0.893-0.833c-0.473,0-0.894,0.308-0.894,0.818     c0,0.285,0.135,0.518,0.36,0.78l0.345,0.405L34.509,136.717z"/>
		<path fill="#0A0A0A" d="M39.662,134.817c0.983,0,1.749,0.473,1.749,1.517c0,1.043-0.766,1.517-1.749,1.517h-1.479v2.289h-0.391     v-5.322H39.662z M41.006,136.334c0-0.826-0.593-1.142-1.366-1.142h-1.457v2.282h1.457     C40.413,137.475,41.006,137.159,41.006,136.334z"/>
		<path fill="#0A0A0A" d="M44.431,139.675c-0.593-0.571-0.729-1.435-0.729-2.192c0-0.766,0.12-1.614,0.729-2.185     c0.353-0.33,0.855-0.586,1.456-0.586c0.571,0,1.051,0.173,1.396,0.458c0.36,0.293,0.585,0.706,0.623,1.171h-0.405     c-0.03-0.322-0.158-0.585-0.36-0.788c-0.3-0.3-0.75-0.458-1.246-0.458c-0.48,0-0.871,0.173-1.156,0.443     c-0.518,0.495-0.623,1.291-0.623,1.944c0,0.646,0.098,1.486,0.63,1.959c0.3,0.271,0.684,0.421,1.141,0.421     c1.089,0,1.622-0.773,1.622-1.84v-0.218h-1.734v-0.383h2.117v2.718h-0.308l-0.06-0.878c-0.248,0.556-0.856,0.983-1.637,0.983     C45.286,140.245,44.776,140.005,44.431,139.675z"/>
		<path fill="#0A0A0A" d="M49.132,139.39v-4.685h0.375v4.669c0,0.256,0.075,0.45,0.39,0.45c0.15,0,0.218-0.007,0.323-0.022v0.338     c-0.083,0.022-0.181,0.045-0.338,0.045C49.403,140.185,49.132,139.938,49.132,139.39z"/>
		<path fill="#0A0A0A" d="M51.368,139.802c-0.413-0.397-0.57-0.893-0.57-1.539c0-0.638,0.157-1.141,0.57-1.539     c0.271-0.255,0.646-0.442,1.126-0.442s0.856,0.188,1.126,0.442c0.413,0.398,0.571,0.901,0.571,1.539     c0,0.646-0.158,1.142-0.571,1.539c-0.27,0.256-0.646,0.443-1.126,0.443S51.638,140.058,51.368,139.802z M53.357,139.547     c0.353-0.346,0.451-0.788,0.451-1.284c0-0.487-0.098-0.938-0.451-1.283c-0.203-0.203-0.488-0.33-0.863-0.33     c-0.375,0-0.661,0.127-0.863,0.33c-0.353,0.345-0.45,0.796-0.45,1.283c0,0.496,0.098,0.938,0.45,1.284     c0.203,0.203,0.488,0.33,0.863,0.33C52.869,139.877,53.154,139.75,53.357,139.547z"/>
		<path fill="#0A0A0A" d="M55.71,139.404l-0.03,0.735h-0.345v-5.435h0.375v2.425c0.195-0.519,0.743-0.849,1.291-0.849     c0.451,0,0.803,0.15,1.059,0.391c0.405,0.375,0.601,0.976,0.601,1.599c0,0.653-0.203,1.254-0.638,1.622     c-0.255,0.218-0.585,0.353-1.028,0.353C56.476,140.245,55.905,139.93,55.71,139.404z M57.76,139.614     c0.353-0.315,0.51-0.811,0.51-1.352c0-0.487-0.12-0.976-0.428-1.283c-0.203-0.203-0.473-0.33-0.841-0.33     c-0.353,0-0.616,0.112-0.811,0.292c-0.353,0.323-0.488,0.767-0.488,1.321c0,0.519,0.143,0.991,0.496,1.314     c0.195,0.18,0.451,0.3,0.788,0.3C57.317,139.877,57.572,139.779,57.76,139.614z"/>
		<path fill="#0A0A0A" d="M59.49,139.097c0-0.668,0.51-1.081,1.261-1.134l1.382-0.098v-0.33c0-0.631-0.458-0.901-1.036-0.901     c-0.563,0-1.029,0.271-1.066,0.834h-0.375c0.052-0.773,0.676-1.187,1.426-1.187c0.856,0,1.426,0.42,1.426,1.283v1.854     c0,0.256,0.038,0.405,0.293,0.405c0.03,0,0.075,0,0.105-0.007v0.33c-0.052,0.015-0.12,0.022-0.18,0.022     c-0.465,0-0.593-0.353-0.593-0.751c-0.203,0.533-0.773,0.826-1.352,0.826C60.053,140.245,59.49,139.802,59.49,139.097z      M62.132,138.405v-0.194l-1.344,0.082c-0.578,0.038-0.916,0.353-0.916,0.796c0,0.525,0.405,0.811,0.938,0.811     C61.757,139.899,62.132,139.134,62.132,138.405z"/>
		<path fill="#0A0A0A" d="M63.899,139.39v-4.685h0.375v4.669c0,0.256,0.075,0.45,0.39,0.45c0.15,0,0.218-0.007,0.323-0.022v0.338     c-0.083,0.022-0.18,0.045-0.337,0.045C64.17,140.185,63.899,139.938,63.899,139.39z"/>
		<path fill="#0A0A0A" d="M71.073,134.817v0.375h-3.011v1.989h2.65v0.376h-2.65v2.207h3.011v0.375h-3.409v-5.322H71.073z"/>
		<path fill="#0A0A0A" d="M72.142,136.387h0.345l0.03,0.721c0.195-0.519,0.781-0.826,1.306-0.826c0.856,0,1.329,0.57,1.329,1.403     v2.455h-0.375v-2.417c0-0.631-0.323-1.073-0.991-1.073c-0.833,0-1.269,0.69-1.269,1.523v1.967h-0.375V136.387z"/>
		<path fill="#0A0A0A" d="M76.74,139.72c-0.308-0.36-0.496-0.871-0.496-1.441c0-0.474,0.075-0.938,0.375-1.337     c0.323-0.428,0.766-0.66,1.313-0.66c1.036,0,1.659,0.826,1.659,1.824c0,0.09,0,0.143-0.007,0.248H76.62     c0.015,0.833,0.503,1.531,1.344,1.531c0.593,0,1.059-0.391,1.148-0.871h0.391c-0.113,0.706-0.788,1.231-1.539,1.231     C77.423,140.245,76.987,140.005,76.74,139.72z M79.202,138.016c-0.015-0.714-0.458-1.382-1.269-1.382     c-0.795,0-1.291,0.646-1.306,1.382H79.202z"/>
		<path fill="#0A0A0A" d="M80.7,136.387h0.345l0.03,0.772c0.165-0.525,0.675-0.811,1.208-0.811c0.113,0,0.24,0,0.353,0.038v0.36     c-0.12-0.03-0.248-0.038-0.368-0.038c-0.871,0-1.193,0.721-1.193,1.554v1.877H80.7V136.387z"/>
		<path fill="#0A0A0A" d="M83.062,140.673c0-0.391,0.255-0.729,0.661-0.841c-0.286-0.06-0.496-0.308-0.496-0.586     c0-0.314,0.218-0.548,0.525-0.66c-0.27-0.226-0.436-0.563-0.436-0.983c0-0.811,0.646-1.321,1.404-1.321     c0.338,0,0.646,0.098,0.901,0.263c0.09-0.33,0.398-0.518,0.735-0.518c0.045,0,0.105,0.007,0.143,0.015v0.315     c-0.038-0.008-0.098-0.008-0.143-0.008c-0.27,0-0.465,0.15-0.518,0.405c0.188,0.218,0.301,0.503,0.301,0.849     c0,0.811-0.638,1.299-1.419,1.299c-0.286,0-0.548-0.061-0.766-0.181c-0.203,0.083-0.39,0.226-0.39,0.451     c0,0.345,0.375,0.39,0.676,0.39h0.773c0.578,0,0.938,0.098,1.194,0.338c0.18,0.173,0.285,0.376,0.285,0.691     c0,0.841-0.878,1.148-1.771,1.148C83.797,141.739,83.062,141.416,83.062,140.673z M86.117,140.605c0-0.541-0.488-0.69-1.073-0.69     h-1.006c-0.337,0.082-0.623,0.285-0.623,0.721c0,0.585,0.653,0.766,1.314,0.766C85.442,141.401,86.117,141.221,86.117,140.605z      M85.765,137.603c0-0.623-0.458-0.991-1.043-0.991c-0.563,0-1.036,0.368-1.036,0.991c0,0.615,0.45,0.969,1.036,0.969     C85.307,138.571,85.765,138.218,85.765,137.603z"/>
		<path fill="#0A0A0A" d="M86.977,141.604v-0.367c0.135,0.067,0.3,0.112,0.488,0.112c0.36,0,0.586-0.165,0.758-0.601l0.218-0.548     l-1.531-3.813h0.413l1.299,3.333l1.254-3.333h0.398l-1.719,4.489c-0.233,0.607-0.571,0.833-1.066,0.833     C87.247,141.709,87.037,141.642,86.977,141.604z"/>
	</g>
	<g>
		<path fill="#0A0A0A" d="M20.336,16.505c0-1.171,0.428-2.478,1.239-3.386l0.233,0.18c-0.736,0.946-1.119,1.974-1.119,3.206     c0,1.231,0.383,2.26,1.119,3.206l-0.233,0.18C20.764,18.983,20.336,17.676,20.336,16.505z"/>
		<path fill="#0A0A0A" d="M22.654,15.177h0.345l0.03,0.735c0.172-0.503,0.63-0.841,1.179-0.841c0.646,0,1.021,0.331,1.171,0.811     c0.203-0.465,0.608-0.811,1.239-0.811c0.878,0,1.246,0.578,1.246,1.381v2.478h-0.375v-2.432c0-0.661-0.255-1.074-0.908-1.074     c-0.706,0-1.119,0.623-1.119,1.381v2.125h-0.39v-2.432c0-0.661-0.286-1.074-0.909-1.074c-0.721,0-1.133,0.676-1.133,1.479v2.027     h-0.375V15.177z"/>
		<path fill="#0A0A0A" d="M29.651,13.607v0.556h-0.511v-0.556H29.651z M29.591,15.177v3.753h-0.383v-3.753H29.591z"/>
		<path fill="#0A0A0A" d="M30.963,18.18v-4.685h0.375v4.669c0,0.255,0.075,0.45,0.39,0.45c0.15,0,0.218-0.007,0.323-0.022v0.338     c-0.083,0.022-0.18,0.045-0.337,0.045C31.234,18.975,30.963,18.728,30.963,18.18z"/>
		<path fill="#0A0A0A" d="M32.861,18.18v-4.685h0.375v4.669c0,0.255,0.075,0.45,0.39,0.45c0.15,0,0.218-0.007,0.323-0.022v0.338     c-0.083,0.022-0.18,0.045-0.337,0.045C33.131,18.975,32.861,18.728,32.861,18.18z"/>
		<path fill="#0A0A0A" d="M35.216,13.607v0.556h-0.51v-0.556H35.216z M35.156,15.177v3.753h-0.383v-3.753H35.156z"/>
		<path fill="#0A0A0A" d="M36.866,18.592c-0.413-0.398-0.57-0.893-0.57-1.539c0-0.638,0.157-1.141,0.57-1.539     c0.271-0.255,0.646-0.443,1.126-0.443s0.856,0.188,1.126,0.443c0.413,0.398,0.571,0.901,0.571,1.539     c0,0.646-0.158,1.141-0.571,1.539c-0.27,0.255-0.646,0.443-1.126,0.443S37.137,18.848,36.866,18.592z M38.855,18.337     c0.353-0.345,0.451-0.788,0.451-1.284c0-0.488-0.098-0.938-0.451-1.284c-0.203-0.203-0.488-0.33-0.863-0.33     c-0.375,0-0.661,0.127-0.863,0.33c-0.353,0.345-0.45,0.796-0.45,1.284c0,0.496,0.098,0.938,0.45,1.284     c0.203,0.203,0.488,0.331,0.863,0.331C38.368,18.667,38.653,18.54,38.855,18.337z"/>
		<path fill="#0A0A0A" d="M40.833,15.177h0.345l0.03,0.721c0.195-0.518,0.781-0.826,1.306-0.826c0.856,0,1.329,0.571,1.329,1.404     v2.455h-0.375v-2.417c0-0.63-0.323-1.073-0.991-1.073c-0.833,0-1.269,0.69-1.269,1.524v1.967h-0.375V15.177z"/>
		<path fill="#0A0A0A" d="M47.329,18.194l-0.03,0.736h-0.345v-5.435h0.375v2.425c0.195-0.518,0.743-0.849,1.291-0.849     c0.451,0,0.803,0.15,1.059,0.391c0.405,0.375,0.601,0.976,0.601,1.599c0,0.653-0.203,1.253-0.638,1.622     c-0.255,0.218-0.585,0.353-1.028,0.353C48.094,19.035,47.523,18.72,47.329,18.194z M49.378,18.405     c0.353-0.315,0.511-0.811,0.511-1.352c0-0.488-0.12-0.976-0.428-1.284c-0.203-0.203-0.473-0.33-0.841-0.33     c-0.353,0-0.616,0.112-0.811,0.292c-0.353,0.323-0.488,0.766-0.488,1.321c0,0.518,0.143,0.991,0.496,1.314     c0.195,0.18,0.45,0.3,0.788,0.3C48.935,18.667,49.19,18.57,49.378,18.405z"/>
		<path fill="#0A0A0A" d="M51.288,19.035h-0.36l2.342-5.533h0.36L51.288,19.035z"/>
		<path fill="#0A0A0A" d="M54.671,18.675c-0.436-0.368-0.631-0.968-0.631-1.614c0-0.616,0.195-1.194,0.601-1.577     c0.263-0.248,0.631-0.413,1.096-0.413c0.608,0,1.074,0.338,1.246,0.758v-2.334h0.383v5.435h-0.353l-0.03-0.713     c-0.21,0.503-0.758,0.818-1.276,0.818C55.264,19.035,54.926,18.893,54.671,18.675z M56.502,18.359     c0.353-0.323,0.488-0.788,0.488-1.306c0-0.555-0.127-0.991-0.48-1.313c-0.195-0.18-0.458-0.3-0.811-0.3     c-0.36,0-0.638,0.127-0.841,0.338c-0.3,0.315-0.436,0.795-0.436,1.276c0,0.533,0.15,1.043,0.511,1.344     c0.195,0.166,0.458,0.271,0.781,0.271C56.052,18.667,56.307,18.54,56.502,18.359z"/>
		<path fill="#0A0A0A" d="M58.21,19.711c0.735-0.946,1.118-1.975,1.118-3.206c0-1.231-0.383-2.26-1.118-3.206l0.232-0.18     c0.811,0.908,1.239,2.214,1.239,3.386c0,1.171-0.428,2.478-1.239,3.386L58.21,19.711z"/>
	</g>
	<g>
		<line fill-rule="evenodd" clip-rule="evenodd" fill="none" x1="20.076" y1="121.006" x2="260.521" y2="121.006"/>
		<g>
			<g>
			</g>
			<g>
			</g>
		</g>
	</g>
	<g>
		<g>
			<g>
				<path fill="#0A0A0A" d="M12.96,124.153c-0.563-0.518-0.646-1.456-0.646-2.282c0-0.818,0.083-1.756,0.646-2.274       c0.255-0.232,0.608-0.428,1.111-0.428c0.503,0,0.864,0.188,1.111,0.428c0.556,0.533,0.646,1.456,0.646,2.274       c0,0.826-0.083,1.765-0.646,2.282c-0.248,0.233-0.608,0.429-1.111,0.429C13.568,124.582,13.216,124.387,12.96,124.153z        M14.935,123.913c0.488-0.458,0.518-1.358,0.518-2.042c0-0.675-0.023-1.576-0.518-2.034c-0.203-0.188-0.473-0.308-0.864-0.308       c-0.383,0-0.66,0.128-0.855,0.308c-0.496,0.458-0.518,1.359-0.518,2.034c0,0.684,0.022,1.584,0.518,2.042       c0.195,0.181,0.473,0.309,0.855,0.309C14.462,124.222,14.74,124.102,14.935,123.913z"/>
			</g>
			<g>
				<path fill="#0A0A0A" d="M12.743,109.97l2.169-2.343c0.345-0.375,0.518-0.75,0.518-1.141c0-0.615-0.42-1.059-1.134-1.059       c-0.743,0-1.164,0.488-1.164,1.336h-0.398c0-1.051,0.638-1.696,1.562-1.696c0.856,0,1.509,0.548,1.509,1.419       c0,0.465-0.226,0.961-0.601,1.358l-2.035,2.17h2.77v0.36h-3.198V109.97z"/>
			</g>
			<g>
				<path fill="#0A0A0A" d="M14.935,95.049h-2.598v-0.45l2.252-3.528h0.443l-2.312,3.604h2.215v-1.72h0.383v1.72h0.773v0.375h-0.773       v1.224h-0.383V95.049z"/>
			</g>
			<g>
				<path fill="#0A0A0A" d="M12.9,81.638c-0.397-0.533-0.48-1.329-0.48-2.072c0-0.795,0.105-1.659,0.616-2.207       c0.248-0.263,0.638-0.495,1.179-0.495c0.878,0,1.509,0.54,1.554,1.358h-0.383c-0.053-0.601-0.451-0.998-1.171-0.998       c-1.164,0-1.404,1.254-1.404,2.492c0.188-0.548,0.758-0.916,1.374-0.916c1.081,0,1.704,0.698,1.704,1.727       c0,0.961-0.616,1.75-1.697,1.75C13.584,82.276,13.148,81.968,12.9,81.638z M15.506,80.526c0-0.721-0.413-1.381-1.314-1.381       c-0.751,0-1.276,0.608-1.276,1.366c0,0.729,0.451,1.404,1.284,1.404C15.1,81.916,15.506,81.255,15.506,80.526z"/>
			</g>
			<g>
				<path fill="#0A0A0A" d="M12.405,66.695c0-0.585,0.375-1.148,0.969-1.344c-0.511-0.188-0.849-0.683-0.849-1.201       c0-0.871,0.713-1.389,1.607-1.389c0.893,0,1.606,0.518,1.606,1.389c0,0.519-0.338,1.014-0.849,1.201       c0.593,0.195,0.969,0.759,0.969,1.344c0,0.931-0.796,1.479-1.727,1.479C13.201,68.175,12.405,67.626,12.405,66.695z        M15.476,66.673c0-0.743-0.601-1.156-1.344-1.156c-0.744,0-1.344,0.413-1.344,1.156s0.601,1.156,1.344,1.156       C14.875,67.829,15.476,67.416,15.476,66.673z M15.348,64.136c0-0.668-0.548-1.036-1.216-1.036c-0.668,0-1.216,0.368-1.216,1.036       c0,0.683,0.533,1.051,1.216,1.051C14.815,65.187,15.348,64.818,15.348,64.136z"/>
			</g>
			<g>
				<path fill="#0A0A0A" d="M9.284,50.199v-0.42l1.427-1.014h0.338v5.203h-0.375V49.23L9.284,50.199z"/>
				<path fill="#0A0A0A" d="M12.96,53.645c-0.563-0.518-0.646-1.457-0.646-2.282c0-0.818,0.083-1.757,0.646-2.275       c0.255-0.232,0.608-0.428,1.111-0.428c0.503,0,0.864,0.188,1.111,0.428c0.556,0.533,0.646,1.457,0.646,2.275       c0,0.826-0.083,1.764-0.646,2.282c-0.248,0.232-0.608,0.428-1.111,0.428C13.568,54.072,13.216,53.877,12.96,53.645z        M14.935,53.404c0.488-0.458,0.518-1.359,0.518-2.042c0-0.676-0.023-1.577-0.518-2.035c-0.203-0.188-0.473-0.308-0.864-0.308       c-0.383,0-0.66,0.127-0.855,0.308c-0.496,0.458-0.518,1.359-0.518,2.035c0,0.683,0.022,1.584,0.518,2.042       c0.195,0.18,0.473,0.308,0.855,0.308C14.462,53.712,14.74,53.592,14.935,53.404z"/>
			</g>
			<g>
				<path fill="#0A0A0A" d="M9.772,36.097v-0.42l1.426-1.014h0.338v5.203h-0.375v-4.737L9.772,36.097z"/>
				<path fill="#0A0A0A" d="M12.743,39.46l2.169-2.342c0.345-0.375,0.518-0.751,0.518-1.141c0-0.616-0.42-1.059-1.134-1.059       c-0.743,0-1.164,0.488-1.164,1.336h-0.398c0-1.051,0.638-1.697,1.562-1.697c0.856,0,1.509,0.548,1.509,1.419       c0,0.465-0.226,0.961-0.601,1.359l-2.035,2.169h2.77v0.36h-3.198V39.46z"/>
			</g>
			<g>
				<path fill="#0A0A0A" d="M9.577,21.995v-0.42l1.427-1.014h0.338v5.203h-0.375v-4.737L9.577,21.995z"/>
				<path fill="#0A0A0A" d="M14.935,24.54h-2.598v-0.451l2.252-3.528h0.443l-2.312,3.604h2.215v-1.719h0.383v1.719h0.773v0.375       h-0.773v1.224h-0.383V24.54z"/>
			</g>
		</g>
		<line fill="none" x1="20.076" y1="121.006" x2="20.076" y2="22.293"/>
		<g>
			<g>
				
					<line fill="none" stroke="#D0D2D3" stroke-width="0.25" stroke-miterlimit="10" x1="20.076" y1="121.006" x2="260.521" y2="121.006"/>
				
					<line fill="none" stroke="#D0D2D3" stroke-width="0.25" stroke-miterlimit="10" x1="20.076" y1="106.904" x2="260.521" y2="106.904"/>
				
					<line fill="none" stroke="#D0D2D3" stroke-width="0.25" stroke-miterlimit="10" x1="20.076" y1="92.802" x2="260.521" y2="92.802"/>
				
					<line fill="none" stroke="#D0D2D3" stroke-width="0.25" stroke-miterlimit="10" x1="20.076" y1="78.701" x2="260.521" y2="78.701"/>
				
					<line fill="none" stroke="#D0D2D3" stroke-width="0.25" stroke-miterlimit="10" x1="20.076" y1="64.599" x2="260.521" y2="64.599"/>
				
					<line fill="none" stroke="#D0D2D3" stroke-width="0.25" stroke-miterlimit="10" x1="20.076" y1="50.497" x2="260.521" y2="50.497"/>
				
					<line fill="none" stroke="#D0D2D3" stroke-width="0.25" stroke-miterlimit="10" x1="20.076" y1="36.395" x2="260.521" y2="36.395"/>
				
					<line fill="none" stroke="#D0D2D3" stroke-width="0.25" stroke-miterlimit="10" x1="20.076" y1="22.293" x2="260.521" y2="22.293"/>
			</g>
			<g>
			</g>
		</g>
	</g>
	<g>
		<g>
			<g>
				<rect x="28.492" y="27.687" fill="#24829A" width="43.28" height="93.319"/>
				<rect x="88.603" y="25.121" fill="#24829A" width="43.28" height="95.885"/>
				<rect x="148.714" y="24.077" fill="#24829A" width="43.28" height="96.929"/>
				<rect x="208.825" y="25.135" fill="#24829A" width="43.28" height="95.871"/>
			</g>
		</g>
	</g>
	<g>
		<g>
		</g>
	</g>
	<g>
		<g>
			<path fill="#0A0A0A" d="M222.76,130.084l2.17-2.343c0.345-0.375,0.518-0.75,0.518-1.141c0-0.616-0.42-1.059-1.134-1.059      c-0.743,0-1.163,0.488-1.163,1.336h-0.398c0-1.051,0.639-1.696,1.562-1.696c0.856,0,1.509,0.548,1.509,1.419      c0,0.466-0.225,0.961-0.601,1.358l-2.034,2.17h2.771v0.36h-3.198V130.084z"/>
			<path fill="#0A0A0A" d="M227.439,130.166c-0.562-0.518-0.646-1.456-0.646-2.282c0-0.817,0.083-1.756,0.646-2.274      c0.256-0.232,0.608-0.428,1.111-0.428s0.863,0.188,1.111,0.428c0.556,0.533,0.646,1.457,0.646,2.274      c0,0.826-0.082,1.765-0.646,2.282c-0.248,0.233-0.608,0.429-1.111,0.429S227.695,130.399,227.439,130.166z M229.414,129.926      c0.488-0.457,0.519-1.358,0.519-2.042c0-0.675-0.022-1.576-0.519-2.034c-0.202-0.188-0.473-0.308-0.863-0.308      c-0.383,0-0.66,0.128-0.855,0.308c-0.496,0.458-0.519,1.359-0.519,2.034c0,0.684,0.022,1.585,0.519,2.042      c0.195,0.181,0.473,0.309,0.855,0.309C228.941,130.234,229.219,130.114,229.414,129.926z"/>
			<path fill="#0A0A0A" d="M231.234,130.084l2.17-2.343c0.345-0.375,0.518-0.75,0.518-1.141c0-0.616-0.42-1.059-1.134-1.059      c-0.743,0-1.163,0.488-1.163,1.336h-0.398c0-1.051,0.639-1.696,1.562-1.696c0.856,0,1.509,0.548,1.509,1.419      c0,0.466-0.225,0.961-0.601,1.358l-2.034,2.17h2.771v0.36h-3.198V130.084z"/>
			<path fill="#0A0A0A" d="M238.032,125.647h-3.025v-0.36h3.423v0.397l-2.357,4.805h-0.435L238.032,125.647z"/>
		</g>
		<g>
			<path fill="#0A0A0A" d="M162.352,130.084l2.17-2.343c0.346-0.375,0.518-0.75,0.518-1.141c0-0.616-0.42-1.059-1.133-1.059      c-0.744,0-1.164,0.488-1.164,1.336h-0.398c0-1.051,0.639-1.696,1.562-1.696c0.855,0,1.509,0.548,1.509,1.419      c0,0.466-0.226,0.961-0.601,1.358l-2.035,2.17h2.771v0.36h-3.198V130.084z"/>
			<path fill="#0A0A0A" d="M167.033,130.166c-0.563-0.518-0.646-1.456-0.646-2.282c0-0.817,0.083-1.756,0.646-2.274      c0.255-0.232,0.607-0.428,1.11-0.428s0.864,0.188,1.111,0.428c0.556,0.533,0.646,1.457,0.646,2.274      c0,0.826-0.082,1.765-0.646,2.282c-0.247,0.233-0.608,0.429-1.111,0.429S167.288,130.399,167.033,130.166z M169.008,129.926      c0.487-0.457,0.518-1.358,0.518-2.042c0-0.675-0.023-1.576-0.518-2.034c-0.203-0.188-0.474-0.308-0.864-0.308      c-0.383,0-0.66,0.128-0.855,0.308c-0.495,0.458-0.519,1.359-0.519,2.034c0,0.684,0.023,1.585,0.519,2.042      c0.195,0.181,0.473,0.309,0.855,0.309C168.534,130.234,168.812,130.114,169.008,129.926z"/>
			<path fill="#0A0A0A" d="M170.827,130.084l2.169-2.343c0.346-0.375,0.519-0.75,0.519-1.141c0-0.616-0.421-1.059-1.134-1.059      c-0.743,0-1.164,0.488-1.164,1.336h-0.397c0-1.051,0.638-1.696,1.562-1.696c0.855,0,1.51,0.548,1.51,1.419      c0,0.466-0.226,0.961-0.602,1.358l-2.034,2.17h2.771v0.36h-3.198V130.084z"/>
			<path fill="#0A0A0A" d="M175.372,129.956c-0.397-0.533-0.48-1.329-0.48-2.072c0-0.795,0.105-1.659,0.616-2.207      c0.247-0.263,0.638-0.495,1.178-0.495c0.879,0,1.51,0.54,1.555,1.358h-0.383c-0.053-0.601-0.451-0.998-1.172-0.998      c-1.163,0-1.403,1.254-1.403,2.492c0.188-0.548,0.758-0.916,1.374-0.916c1.081,0,1.704,0.698,1.704,1.727      c0,0.961-0.616,1.75-1.697,1.75C176.056,130.595,175.62,130.286,175.372,129.956z M177.978,128.845      c0-0.721-0.413-1.381-1.314-1.381c-0.751,0-1.276,0.608-1.276,1.366c0,0.729,0.451,1.404,1.284,1.404      C177.572,130.234,177.978,129.573,177.978,128.845z"/>
		</g>
		<g>
			<path fill="#0A0A0A" d="M102.323,130.084l2.169-2.343c0.345-0.375,0.518-0.75,0.518-1.141c0-0.616-0.42-1.059-1.134-1.059      c-0.743,0-1.164,0.488-1.164,1.336h-0.398c0-1.051,0.638-1.696,1.562-1.696c0.856,0,1.509,0.548,1.509,1.419      c0,0.466-0.225,0.961-0.601,1.358l-2.035,2.17h2.771v0.36h-3.198V130.084z"/>
			<path fill="#0A0A0A" d="M107.004,130.166c-0.563-0.518-0.646-1.456-0.646-2.282c0-0.817,0.083-1.756,0.646-2.274      c0.255-0.232,0.608-0.428,1.111-0.428c0.503,0,0.863,0.188,1.111,0.428c0.556,0.533,0.646,1.457,0.646,2.274      c0,0.826-0.083,1.765-0.646,2.282c-0.248,0.233-0.608,0.429-1.111,0.429C107.612,130.595,107.259,130.399,107.004,130.166z       M108.979,129.926c0.488-0.457,0.518-1.358,0.518-2.042c0-0.675-0.022-1.576-0.518-2.034c-0.203-0.188-0.473-0.308-0.863-0.308      c-0.383,0-0.661,0.128-0.856,0.308c-0.496,0.458-0.518,1.359-0.518,2.034c0,0.684,0.022,1.585,0.518,2.042      c0.195,0.181,0.473,0.309,0.856,0.309C108.505,130.234,108.783,130.114,108.979,129.926z"/>
			<path fill="#0A0A0A" d="M110.798,130.084l2.169-2.343c0.345-0.375,0.518-0.75,0.518-1.141c0-0.616-0.42-1.059-1.134-1.059      c-0.743,0-1.164,0.488-1.164,1.336h-0.398c0-1.051,0.638-1.696,1.562-1.696c0.856,0,1.509,0.548,1.509,1.419      c0,0.466-0.226,0.961-0.601,1.358l-2.035,2.17h2.77v0.36h-3.198V130.084z"/>
			<path fill="#0A0A0A" d="M114.788,128.98h0.375c0.038,0.735,0.548,1.254,1.336,1.254c0.833,0,1.306-0.586,1.306-1.374      c0-0.759-0.413-1.389-1.246-1.389c-0.465,0-0.923,0.18-1.171,0.57h-0.443l0.21-2.755h2.845v0.353h-2.522l-0.173,2.026      c0.286-0.367,0.789-0.548,1.254-0.548c1.074,0,1.622,0.751,1.622,1.742c0,0.945-0.593,1.734-1.682,1.734      C115.463,130.595,114.811,129.896,114.788,128.98z"/>
		</g>
		<g>
			<path fill="#0A0A0A" d="M42.254,130.084l2.169-2.343c0.345-0.375,0.518-0.75,0.518-1.141c0-0.616-0.42-1.059-1.134-1.059      c-0.743,0-1.164,0.488-1.164,1.336h-0.398c0-1.051,0.638-1.696,1.562-1.696c0.856,0,1.509,0.548,1.509,1.419      c0,0.466-0.225,0.961-0.601,1.358l-2.035,2.17h2.771v0.36h-3.198V130.084z"/>
			<path fill="#0A0A0A" d="M46.935,130.166c-0.563-0.518-0.646-1.456-0.646-2.282c0-0.817,0.083-1.756,0.646-2.274      c0.255-0.232,0.608-0.428,1.111-0.428c0.503,0,0.863,0.188,1.111,0.428c0.556,0.533,0.646,1.457,0.646,2.274      c0,0.826-0.083,1.765-0.646,2.282c-0.248,0.233-0.608,0.429-1.111,0.429C47.542,130.595,47.19,130.399,46.935,130.166z       M48.909,129.926c0.488-0.457,0.518-1.358,0.518-2.042c0-0.675-0.022-1.576-0.518-2.034c-0.203-0.188-0.473-0.308-0.863-0.308      c-0.383,0-0.661,0.128-0.856,0.308c-0.496,0.458-0.518,1.359-0.518,2.034c0,0.684,0.022,1.585,0.518,2.042      c0.195,0.181,0.473,0.309,0.856,0.309C48.436,130.234,48.714,130.114,48.909,129.926z"/>
			<path fill="#0A0A0A" d="M50.729,130.084l2.169-2.343c0.345-0.375,0.518-0.75,0.518-1.141c0-0.616-0.42-1.059-1.134-1.059      c-0.743,0-1.164,0.488-1.164,1.336h-0.398c0-1.051,0.638-1.696,1.562-1.696c0.856,0,1.509,0.548,1.509,1.419      c0,0.466-0.226,0.961-0.601,1.358l-2.035,2.17h2.77v0.36h-3.198V130.084z"/>
			<path fill="#0A0A0A" d="M57.061,129.266h-2.598v-0.45l2.252-3.528h0.443l-2.312,3.604h2.215v-1.72h0.383v1.72h0.773v0.375h-0.773      v1.224h-0.383V129.266z"/>
		</g>
	</g>
</g>
</svg>
